<?xml version="1.0" standalone="no"?>
<!DOCTYPE svg PUBLIC "-//W3C//DTD SVG 1.1//EN" "http://www.w3.org/Graphics/SVG/1.1/DTD/svg11.dtd" >
<svg xmlns="http://www.w3.org/2000/svg">
<metadata>
Created by FontPrep 20130207 at Fri Feb  7 00:13:33 2014
 By Bharat Srikishan
Copyright (c) 2013 by James T. Edmondson. All rights reserved.
</metadata>
<defs>
<font id="51cbdf9eea2c0cda3624cfc04f28034f" horiz-adv-x='1024' >
  <font-face 
    font-family="MissionGothic-Regular"
    font-weight="440"
    font-stretch="normal"
    units-per-em="2048"
    panose-1="2 0 0 0 0 0 0 0 0 0"
    ascent="1536"
    descent="-512"
    x-height="1116"
    cap-height="1434"
    bbox="-158 -555 2802 1944"
    underline-thickness="112"
    underline-position="-104"
    unicode-range="U+000D-FB02"
  />
<missing-glyph horiz-adv-x="593" 
 />
    <glyph glyph-name=".notdef" horiz-adv-x="593" 
 />
    <glyph glyph-name=".null" horiz-adv-x="0" 
 />
    <glyph glyph-name="nonmarkingreturn" horiz-adv-x="681" 
 />
    <glyph glyph-name="NUL" horiz-adv-x="1542" 
 />
    <glyph glyph-name="NUL" horiz-adv-x="1542" 
 />
    <glyph glyph-name="CR" unicode="&#xd;" horiz-adv-x="532" 
 />
    <glyph glyph-name="space" unicode=" " horiz-adv-x="532" 
 />
    <glyph glyph-name="exclam" unicode="!" horiz-adv-x="460" 
d="M231 -20q-47 0 -81 34t-35 81q0 48 35 82q36 34 82 34t81 -34t35 -82q0 -47 -35 -81t-82 -34zM324 377h-189v1057h189v-1057z" />
    <glyph glyph-name="quotedbl" unicode="&#x22;" horiz-adv-x="671" 
d="M504 1008h-148l35 426h170zM254 1008h-148l35 426h170z" />
    <glyph glyph-name="numbersign" unicode="#" horiz-adv-x="1286" 
d="M715 676l49 246h-205l-51 -246h207zM1151 528h-291l-67 -307h-179l68 307h-207l-65 -307h-179l66 307h-252l12 148h273l51 246h-258l14 149h275l61 291h178l-59 -291h203l63 291h178l-59 -291h268l-16 -149h-287l-49 -246h272z" />
    <glyph glyph-name="dollar" unicode="$" horiz-adv-x="1013" 
d="M517 160q103 0 166 58q62 58 62 136t-34 128q-35 50 -91 86t-125 70q-178 88 -263 159q-126 106 -126 277q0 170 113 274t301 104l25 213h127l-27 -235q182 -57 266 -265l-166 -98q-66 205 -249 205q-90 0 -146 -52t-55 -130q0 -78 47 -135q47 -56 119 -90
q71 -34 153 -77t154 -89t119 -129t47 -191q0 -185 -119 -291t-328 -106l-18 -181h-127l20 197q-219 53 -307 254l164 106q37 -92 116 -145t182 -53z" />
    <glyph glyph-name="percent" unicode="%" horiz-adv-x="1282" 
d="M934 121q106 0 106 211t-106 211t-106 -211t106 -211zM934 -20q-256 0 -256 352q0 160 60 257t196 97t195 -97q60 -97 61 -257q0 -352 -256 -352zM349 891q105 0 105 210t-104 210q-106 0 -106 -210t105 -210zM604 1100q0 -158 -60 -255t-195 -97q-134 0 -194 97t-61 255
q0 354 255 354t255 -354zM309 0h-168l832 1434h170z" />
    <glyph glyph-name="ampersand" unicode="&#x26;" horiz-adv-x="1198" 
d="M272 439q0 -121 70 -203t193 -82q161 -1 249 153l-258 449q-118 -12 -186 -104t-68 -213zM78 430q0 147 80 261t213 151v4q-170 102 -170 276q0 136 92 234t259 98t284 -121l-129 -151q-53 90 -156 90q-74 0 -117 -46t-43 -120t56 -132t174 -61l245 -446h4q33 131 33 267
t-2 171h180q0 -367 -100 -612q25 -47 63 -80t74 -37l-26 -180q-129 4 -209 162h-4q-133 -186 -349 -186t-334 136t-118 322z" />
    <glyph glyph-name="quotesingle" unicode="'" horiz-adv-x="342" 
d="M221 1008h-147l35 426h170z" />
    <glyph glyph-name="parenleft" unicode="(" horiz-adv-x="483" 
d="M84 716q0 592 207 910l139 -84q-168 -258 -168 -826t168 -825l-139 -84q-207 317 -207 909z" />
    <glyph glyph-name="parenright" unicode=")" horiz-adv-x="483" 
d="M221 716q0 568 -168 826l140 84q207 -318 207 -910t-207 -909l-140 84q168 257 168 825z" />
    <glyph glyph-name="asterisk" unicode="*" horiz-adv-x="817" 
d="M260 725q-63 50 -143 100q74 94 241 226l-2 4q-12 2 -126 10t-197 33l53 166q129 -47 287 -156l4 2q-53 186 -60 324h175q-4 -123 -60 -326q2 -2 4 -2q174 117 289 158q37 -111 53 -166q-79 -23 -196 -34t-125 -11l-2 -4q153 -120 237 -224l-141 -100q-70 104 -141 303
h-4q-8 -16 -48 -113t-98 -190z" />
    <glyph glyph-name="plus" unicode="+" horiz-adv-x="745" 
d="M455 381h-164v258h-248v152h248v258h164v-258h247v-152h-247v-258z" />
    <glyph glyph-name="comma" unicode="," horiz-adv-x="440" 
d="M186 -10q-26 0 -53 28t-27 71q0 42 29 71t72 28q117 0 117 -157q0 -82 -56 -151t-143 -77l-19 64q106 29 121 129l-4 2q-11 -8 -37 -8z" />
    <glyph glyph-name="hyphen" unicode="-" horiz-adv-x="604" 
d="M545 596h-486v168h486v-168z" />
    <glyph glyph-name="period" unicode="." horiz-adv-x="436" 
d="M219 -20q-47 0 -82 34t-35 81q0 48 35 82t82 34t82 -34t35 -82q0 -47 -35 -81t-82 -34z" />
    <glyph glyph-name="slash" unicode="/" horiz-adv-x="655" 
d="M256 -123h-184l321 1679h189z" />
    <glyph glyph-name="zero" unicode="0" horiz-adv-x="1058" 
d="M528 160q246 0 246 557t-246 557t-246 -557t246 -557zM528 -20q-434 0 -434 737t434 737t434 -737t-434 -737z" />
    <glyph glyph-name="one" unicode="1" horiz-adv-x="559" 
d="M389 0h-188v1253h-121v181h309v-1434z" />
    <glyph glyph-name="two" unicode="2" horiz-adv-x="991" 
d="M877 0h-818v2l541 778q102 147 102 258t-58 172q-58 62 -152 62t-160 -69q-64 -69 -72 -181l-176 76q35 156 142 256q108 100 283 100t281 -115t105 -289q0 -174 -131 -364l-219 -315q-77 -111 -127 -166l-19 -19v-4h478v-182z" />
    <glyph glyph-name="three" unicode="3" horiz-adv-x="995" 
d="M731 436q0 114 -72 191q-72 76 -196 75q-47 0 -74 -4l-63 166l206 250q87 101 117 131v4h-524v185h760v-177l-350 -403q383 -70 383 -424q0 -186 -115 -318t-324 -132q-158 0 -263 85t-150 224l167 106q56 -235 268 -235q107 0 169 81q61 81 61 195z" />
    <glyph glyph-name="four" unicode="4" horiz-adv-x="978" 
d="M557 477v602h-4q-3 -4 -23 -54t-32 -75l-129 -282q-33 -72 -90 -187v-4h278zM735 0h-190v307h-533l533 1127h190v-945h168v-182h-168v-307z" />
    <glyph glyph-name="five" unicode="5" horiz-adv-x="1052" 
d="M522 160q109 0 168 82q60 82 60 194t-60 196q-60 83 -174 83q-113 0 -199 -86l-157 82l67 723h615v-189h-455l-39 -393l4 -2q90 43 183 43q203 0 307 -131q104 -130 104 -318t-114 -326t-310 -138q-158 0 -260 85t-149 224l168 98q55 -227 241 -227z" />
    <glyph glyph-name="six" unicode="6" horiz-adv-x="1058" 
d="M558 1272q-138 0 -206 -150t-69 -411l4 -2q41 80 117 132q77 52 171 52q185 0 287 -125q102 -126 102 -310t-114 -331q-115 -147 -305 -147q-442 0 -443 745q0 431 192 625q103 104 257 104q262 0 373 -262l-164 -100q-64 180 -202 180zM542 160q101 0 165 93
q63 93 63 207t-58 190t-166 75q-108 0 -169 -79t-61 -201q0 -121 62 -203q63 -82 164 -82z" />
    <glyph glyph-name="seven" unicode="7" horiz-adv-x="821" 
d="M39 1253v181h809l-457 -1434h-198l397 1253h-551z" />
    <glyph glyph-name="eight" unicode="8" horiz-adv-x="1040" 
d="M961 416q0 -176 -116 -306t-323 -130q-208 0 -324 130t-116 306q0 127 63 228t177 149v4q-78 45 -123 125t-45 170q0 150 98 256t269 106t269 -106t99 -256q0 -92 -47 -172t-123 -119v-4q113 -47 177 -151t65 -230zM522 879q86 0 134 59t48 143q0 85 -48 141t-135 56
t-135 -56t-48 -140t49 -143q49 -60 135 -60zM522 154q119 0 186 80q66 80 66 192q0 111 -67 194q-68 82 -186 82q-119 0 -185 -82t-66 -194t66 -192t186 -80z" />
    <glyph glyph-name="nine" unicode="9" horiz-adv-x="1067" 
d="M289 983q0 -115 60 -195t170 -81t171 77q62 78 62 201t-62 205t-168 82q-107 0 -170 -87t-63 -202zM514 160q92 0 152 69q59 70 84 188t28 294q-106 -172 -290 -172t-289 128q-105 129 -105 315t114 329t314 143q442 0 443 -747q0 -433 -190 -623q-103 -104 -257 -104
q-266 0 -375 260l164 100q63 -180 207 -180z" />
    <glyph glyph-name="colon" unicode=":" horiz-adv-x="436" 
d="M219 649q-47 0 -82 34t-35 82t35 82t82 34t82 -34t35 -82t-35 -82t-82 -34zM219 -20q-47 0 -82 34t-35 81q0 48 35 82t82 34t82 -34t35 -82q0 -47 -35 -81t-82 -34z" />
    <glyph glyph-name="semicolon" unicode=";" horiz-adv-x="436" 
d="M219 649q-47 0 -82 34t-35 82t35 82t82 34t82 -34t35 -82t-35 -82t-82 -34zM186 -10q-26 0 -53 28t-27 71q0 42 29 71t72 28q117 0 117 -157q0 -82 -56 -151t-143 -77l-19 64q106 29 121 129l-4 2q-11 -8 -37 -8z" />
    <glyph glyph-name="less" unicode="&#x3c;" horiz-adv-x="665" 
d="M492 319l-445 355v104l445 355l98 -136l-242 -192q-78 -63 -104 -76v-4q47 -31 104 -78l242 -192z" />
    <glyph glyph-name="equal" unicode="=" horiz-adv-x="663" 
d="M604 799h-545v153h545v-153zM604 479h-545v154h545v-154z" />
    <glyph glyph-name="greater" unicode="&#x3e;" horiz-adv-x="665" 
d="M166 1135l444 -355v-104l-444 -354l-98 135l241 192q78 63 105 76v4q-47 31 -105 78l-241 192z" />
    <glyph glyph-name="question" unicode="?" horiz-adv-x="876" 
d="M551 94q0 -47 -34 -81q-34 -33 -82 -33t-82 34t-34 80q0 47 34 82t82 35t82 -35t34 -82zM635 1072q0 96 -50 148q-51 52 -145 52t-156 -72t-73 -186l-174 94q33 154 139 250t276 96t274 -102t105 -267q0 -165 -118 -292q-49 -53 -99 -101q-120 -115 -118 -200
q-1 -52 30 -103l-157 -90q-70 78 -70 201t119 252q49 53 98 103q119 122 119 217z" />
    <glyph glyph-name="at" unicode="@" horiz-adv-x="1589" 
d="M795 924q-59 0 -99 -54t-39 -155q0 -101 36 -153t92 -52t103 62q46 62 46 159t-40 145t-99 48zM799 -98q-311 0 -508 228t-197 586t197 588q197 228 508 228q174 0 312 -74t219 -192q163 -236 163 -525q0 -182 -74 -287t-215 -106q-170 0 -239 158q-66 -158 -215 -158
q-121 0 -196 92t-75 264t82 277q82 104 217 104t195 -110h4l20 86h131q-18 -68 -18 -148v-219q0 -86 29 -132t80 -46q113 0 112 213q0 275 -143 459q-142 184 -380 184t-393 -177t-155 -475t157 -478t382 -181q182 0 321 119l68 -153q-162 -125 -389 -125z" />
    <glyph glyph-name="A" unicode="A" horiz-adv-x="1030" 
d="M680 463l-133 541l-29 141h-4q-16 -86 -31 -141l-133 -541h330zM989 0h-198l-74 293h-406l-71 -293h-199l373 1434h202z" />
    <glyph glyph-name="B" unicode="B" horiz-adv-x="1122" 
d="M356 829h144q268 0 268 224q0 106 -63 153t-207 47h-142v-424zM356 180h211q268 0 269 244q0 238 -269 238h-211v-482zM557 0h-389v1434h350q438 0 438 -377q0 -215 -180 -297v-4q117 -33 179 -120t63 -212q0 -192 -115 -308t-346 -116z" />
    <glyph glyph-name="C" unicode="C" horiz-adv-x="1046" 
d="M571 -20q-131 0 -227 58t-150 164q-104 203 -104 514q0 312 104 516q54 106 150 164t227 58q309 0 422 -326l-166 -92q-70 238 -256 238q-153 0 -223 -152t-70 -406t72 -405q70 -152 221 -151q178 0 250 219l164 -98q-117 -301 -414 -301z" />
    <glyph glyph-name="D" unicode="D" horiz-adv-x="1122" 
d="M356 180h150q164 0 245 144t80 393q0 248 -81 392q-82 144 -252 144h-142v-1073zM168 0v1434h330q272 0 398 -198t126 -519q0 -387 -171 -579q-123 -138 -345 -138h-338z" />
    <glyph glyph-name="E" unicode="E" horiz-adv-x="1038" 
d="M893 0h-725v1434h725v-183h-537v-493h457v-180h-457v-398h537v-180z" />
    <glyph glyph-name="F" unicode="F" horiz-adv-x="972" 
d="M356 0h-188v1434h725v-183h-537v-553h455v-180h-455v-518z" />
    <glyph glyph-name="G" unicode="G" horiz-adv-x="1130" 
d="M621 561v182h415q0 -764 -458 -763q-369 0 -457 453q-25 128 -25 284q0 311 104 515q54 106 150 164t228 58q313 0 423 -332l-167 -94q-68 244 -256 244q-152 0 -223 -152t-71 -404t72 -405q70 -152 222 -151q130 0 192 112t66 289h-215z" />
    <glyph glyph-name="H" unicode="H" horiz-adv-x="1185" 
d="M1018 0h-189v575h-473v-575h-188v1434h188v-678h473v678h189v-1434z" />
    <glyph glyph-name="I" unicode="I" horiz-adv-x="524" 
d="M356 0h-188v1434h188v-1434z" />
    <glyph glyph-name="J" unicode="J" horiz-adv-x="749" 
d="M412 467v967h188v-957q0 -248 -104 -373t-297 -124q-105 -1 -179 32l72 172q43 -25 105 -24q215 0 215 307z" />
    <glyph glyph-name="K" unicode="K" horiz-adv-x="1058" 
d="M356 0h-188v1434h188v-473l-2 -177h4l424 650h222l-400 -586l408 -848h-205l-258 541q-41 82 -57 127h-9q-6 -8 -43 -68t-84 -123v-477z" />
    <glyph glyph-name="L" unicode="L" horiz-adv-x="892" 
d="M848 0h-680v1434h188v-1254h492v-180z" />
    <glyph glyph-name="M" unicode="M" horiz-adv-x="1400" 
d="M1233 0h-182v973l2 127h-4q-27 -61 -54 -109l-288 -520h-17l-282 518l-58 113h-4q2 -72 2 -129v-973h-180v1434h205l266 -502l57 -115h4q35 70 60 117l266 500h207v-1434z" />
    <glyph glyph-name="N" unicode="N" horiz-adv-x="1204" 
d="M862 1434h174v-1434h-176l-522 1055h-4q6 -74 6 -142v-913h-172v1434h176l465 -922l53 -125h4l-4 139v908z" />
    <glyph glyph-name="O" unicode="O" horiz-adv-x="1132" 
d="M566 160q146 0 217 147t71 410q0 557 -288 557t-287 -557q0 -262 70 -410q71 -147 217 -147zM565 -20q-167 0 -277 102t-154 262t-44 373t44 373t154 262t277 102q248 0 363 -203q114 -203 114 -535t-114 -534q-115 -202 -363 -202z" />
    <glyph glyph-name="P" unicode="P" horiz-adv-x="1050" 
d="M356 582h160q143 0 217 92t74 245t-74 243t-217 91h-160v-671zM356 0h-188v1434h348q231 0 355 -148t124 -367q0 -220 -122 -370t-361 -150h-156v-399z" />
    <glyph glyph-name="Q" unicode="Q" horiz-adv-x="1134" 
d="M854 717q0 555 -288 555t-287 -555q0 -264 70 -411q71 -146 216 -146q35 0 60 8q-48 127 -109 215l94 70q59 -76 115 -230l2 -2h4q123 131 123 496zM565 -20q-167 0 -277 102t-154 262t-44 346t26 314q91 450 449 450q248 0 363 -204t114 -533q0 -510 -247 -676
q43 -78 125 -154l-86 -90q-92 84 -148 199q-74 -16 -121 -16z" />
    <glyph glyph-name="R" unicode="R" horiz-adv-x="1120" 
d="M356 639h160q143 0 217 83t74 226t-74 224t-217 81h-160v-614zM512 459h-156v-459h-188v1434h367q227 0 344 -136t116 -350q0 -141 -56 -253t-167 -171l229 -524h-202l-203 465q-27 -6 -84 -6z" />
    <glyph glyph-name="S" unicode="S" horiz-adv-x="1013" 
d="M514 160q106 0 168 60q63 60 63 138q0 136 -125 212q-56 34 -125 67q-172 82 -263 157q-126 104 -126 274q0 171 109 279t283 107q299 0 413 -289l-170 -98q-66 205 -245 205q-92 0 -146 -53t-53 -137q0 -145 224 -251q93 -43 187 -92t160 -140t66 -220q0 -178 -117 -289
t-313 -110q-156 0 -275 74t-174 198l164 106q35 -92 112 -145t183 -53z" />
    <glyph glyph-name="T" unicode="T" horiz-adv-x="894" 
d="M543 0h-191v1251h-297v183h783v-183h-295v-1251z" />
    <glyph glyph-name="U" unicode="U" horiz-adv-x="1159" 
d="M811 498v936h190v-957q-1 -246 -113 -372q-112 -125 -306 -125t-310 126q-115 126 -114 373v955h188v-938q0 -336 234 -336q129 0 180 89t51 249z" />
    <glyph glyph-name="V" unicode="V" horiz-adv-x="991" 
d="M596 0h-203l-375 1434h197l244 -994l33 -149h4q14 80 30 149l246 994h199z" />
    <glyph glyph-name="W" unicode="W" horiz-adv-x="1562" 
d="M1223 0h-205l-213 938l-21 121h-8q-8 -55 -22 -121l-209 -938h-205l-326 1434h199l211 -1037q8 -39 20 -116h5q12 68 22 116l221 1037h176l222 -1037l22 -116h4q-6 10 19 116l213 1037h198q-192 -848 -323 -1434z" />
    <glyph glyph-name="X" unicode="X" horiz-adv-x="966" 
d="M922 0h-201l-184 442l-52 144h-4q-31 -92 -53 -148l-182 -438h-201l313 717l-313 717h201l182 -443l53 -145h4q29 92 52 143l184 445h201l-314 -717z" />
    <glyph glyph-name="Y" unicode="Y" horiz-adv-x="946" 
d="M567 0h-190v416l-354 1018h208l193 -607q33 -98 47 -182h4q14 84 45 182l193 607h211l-357 -1018v-416z" />
    <glyph glyph-name="Z" unicode="Z" horiz-adv-x="987" 
d="M883 0h-834v4l535 1131l63 114v4q-49 -2 -86 -2h-446v183h817v-4l-533 -1115l-69 -135q0 -2 16 -1t53 1h484v-180z" />
    <glyph glyph-name="bracketleft" unicode="[" horiz-adv-x="559" 
d="M539 -281h-383v2016h383v-152h-211v-1712h211v-152z" />
    <glyph glyph-name="backslash" unicode="\" horiz-adv-x="585" 
d="M547 -123h-185l-325 1679h188z" />
    <glyph glyph-name="bracketright" unicode="]" horiz-adv-x="559" 
d="M20 1735h383v-2016h-383v152h211v1712h-211v152z" />
    <glyph glyph-name="asciicircum" unicode="^" horiz-adv-x="696" 
d="M559 1534l-123 131l-84 96h-4q-43 -53 -84 -96l-123 -131l-112 123l241 225h158l242 -225z" />
    <glyph glyph-name="underscore" unicode="_" horiz-adv-x="794" 
d="M795 -377h-795v172h795v-172z" />
    <glyph glyph-name="grave" unicode="`" horiz-adv-x="516" 
d="M463 1503l-457 193l68 147l446 -217z" />
    <glyph glyph-name="a" unicode="a" horiz-adv-x="1005" 
d="M672 440v80h-45q-171 0 -267 -55t-96 -162q0 -80 47 -124t115 -44q114 0 180 89t66 216zM393 -20q-147 0 -228 90t-81 246t146 250q146 95 442 96v67q0 117 -48 179t-141 63q-147 0 -225 -164l-121 127q145 203 377 203q152 0 249 -108t97 -318v-537q0 -113 33 -174h-184
q-16 20 -35 154q-92 -174 -281 -174z" />
    <glyph glyph-name="b" unicode="b" horiz-adv-x="1040" 
d="M338 717v-225q0 -336 201 -336q217 0 217 406t-217 405q-97 0 -149 -72t-52 -178zM150 174v1321h188v-350l-2 -146h4q92 137 258 137t258 -153q92 -154 92 -422t-98 -425q-98 -156 -267 -156t-259 147h-5q-3 -61 -26 -127h-166q23 113 23 174z" />
    <glyph glyph-name="c" unicode="c" horiz-adv-x="935" 
d="M506 -20q-198 0 -306 152t-108 422q0 271 110 427t304 156q256 0 362 -254l-155 -113q-43 188 -199 188q-229 0 -229 -401t229 -401q146 -1 205 192l149 -110q-98 -258 -362 -258z" />
    <glyph glyph-name="d" unicode="d" 
d="M700 416v221q0 330 -200 330q-217 0 -217 -407t217 -406q96 0 148 74t52 188zM92 559q0 266 99 422t280 156q143 0 227 -123h4q-2 70 -2 129v352h189v-1323q-1 -98 26 -172h-170q-25 66 -28 133h-4q-86 -153 -259 -153t-268 156q-94 157 -94 423z" />
    <glyph glyph-name="e" unicode="e" horiz-adv-x="993" 
d="M514 979q-109 0 -166 -91t-67 -249h442q-10 340 -209 340zM508 -20q-200 0 -308 152t-108 421q0 270 111 427t305 157q338 0 387 -405q10 -83 10 -185v-51h-624q14 -348 245 -349q160 1 232 189l141 -105q-63 -127 -155 -189t-236 -62z" />
    <glyph glyph-name="f" unicode="f" horiz-adv-x="661" 
d="M397 0h-188v954h-148v162h148v51q0 373 303 373q84 0 158 -33l-47 -166q-47 33 -101 33q-125 0 -125 -174v-84h205v-162h-205v-954z" />
    <glyph glyph-name="g" unicode="g" horiz-adv-x="1052" 
d="M702 481v181q0 305 -198 305q-121 -1 -170 -99t-49 -276q0 -385 211 -385q100 -1 153 77t53 197zM893 944v-936q0 -217 -99 -336t-288 -118q-252 0 -365 227l150 121q66 -172 211 -172q200 0 200 260v53l5 131h-5q-84 -143 -252 -143t-263 148q-93 149 -93 411t100 404
t269 142q170 0 256 -141h4q5 82 25 121h178q-33 -82 -33 -172z" />
    <glyph glyph-name="h" unicode="h" horiz-adv-x="1064" 
d="M938 0h-188v692q0 123 -48 199t-149 76t-161 -74t-60 -193v-700h-189v1495h189v-387l-2 -129h4q94 158 270 158t255 -123t79 -320v-694z" />
    <glyph glyph-name="i" unicode="i" horiz-adv-x="489" 
d="M244 1257q-47 0 -82 34t-35 82t35 82t82 34t82 -34q34 -34 34 -82t-34 -82t-82 -34zM338 0h-188v1116h188v-1116z" />
    <glyph glyph-name="j" unicode="j" horiz-adv-x="544" 
d="M299 1257q-47 0 -82 34t-35 82t35 82t82 34t82 -34t35 -82t-35 -82t-82 -34zM201 10v1106h194v-1110q0 -221 -94 -336t-270 -114q-99 -1 -189 32l66 172q43 -29 110 -28q96 0 140 65q43 66 43 213z" />
    <glyph glyph-name="k" unicode="k" horiz-adv-x="1013" 
d="M332 0h-189v1495h189v-702l-2 -134h4q0 2 121 154l245 303h226l-353 -432l394 -684h-215l-303 539h-5q-29 -41 -59 -78l-53 -66v-395z" />
    <glyph glyph-name="l" unicode="l" horiz-adv-x="475" 
d="M332 0h-189v1495h189v-1495z" />
    <glyph glyph-name="m" unicode="m" horiz-adv-x="1558" 
d="M1432 0h-191v727q0 236 -154 236q-90 0 -145 -71t-55 -200v-692h-191v727q0 236 -153 236q-89 0 -145 -69t-56 -194v-700h-188v944q0 104 -27 172h170q23 -68 29 -147h4q86 162 256 161q213 0 270 -184h4q88 190 279 191q166 -1 229 -107t64 -299v-731z" />
    <glyph glyph-name="n" unicode="n" horiz-adv-x="1089" 
d="M948 0h-188v621q0 166 -39 256t-158 90q-221 0 -221 -346v-621h-188v944q0 104 -27 172h170q25 -72 31 -155h4q92 176 276 176t262 -123t78 -320v-694z" />
    <glyph glyph-name="o" unicode="o" horiz-adv-x="1019" 
d="M510 -20q-207 0 -312 152q-106 152 -106 426q0 273 106 426t312 153q207 0 312 -153q106 -153 106 -426q0 -274 -106 -426t-312 -152zM510 152q225 0 225 407q0 184 -54 296t-171 112t-172 -112t-55 -294q0 -181 55 -295t172 -114z" />
    <glyph glyph-name="p" unicode="p" 
d="M342 649v-188q0 -313 201 -314q217 0 217 406t-217 405q-201 0 -201 -309zM342 -410h-188v1354q0 104 -27 172h170q20 -61 27 -129h4q96 150 262 150t263 -158t97 -426t-92 -421q-92 -152 -259 -152t-255 133h-4q2 -63 2 -129v-394z" />
    <glyph glyph-name="q" unicode="q" horiz-adv-x="1046" 
d="M702 459v186q0 137 -47 225t-155 88q-217 0 -217 -406t217 -405q202 1 202 312zM893 944v-1354h-191v400l5 133h-5q-82 -143 -254 -143t-264 151q-92 152 -92 421t96 427t268 158t261 -156h4q11 99 27 135h172q-27 -68 -27 -172z" />
    <glyph glyph-name="r" unicode="r" horiz-adv-x="718" 
d="M342 0h-188v944q0 104 -27 172h170q29 -82 35 -184h4q92 203 313 203q5 0 19 -1t20 -1l-31 -218q-25 12 -73 13q-110 0 -176 -78t-66 -203v-647z" />
    <glyph glyph-name="s" unicode="s" horiz-adv-x="970" 
d="M510 150q86 0 136 43t50 109q0 118 -202 188q-84 30 -168 64t-144 100q-59 67 -59 163q0 133 99 225t278 93q227 0 358 -162l-129 -119q-84 121 -242 121q-76 0 -127 -39q-51 -38 -51 -100q-1 -62 59 -101t144 -67t169 -63t144 -109t60 -183q-1 -147 -101 -240t-270 -93
q-283 -1 -428 202l139 125q39 -69 119 -113t166 -44z" />
    <glyph glyph-name="t" unicode="t" horiz-adv-x="724" 
d="M190 301v651h-133v164h133v293h189v-293h237v-164h-237v-639q0 -158 131 -157q61 -1 106 26l48 -166q-78 -37 -183 -36q-143 0 -217 82t-74 239z" />
    <glyph glyph-name="u" unicode="u" horiz-adv-x="1077" 
d="M467 -20q-184 0 -262 122t-78 318v696h188v-622q0 -208 50 -276q50 -69 154 -70t159 82t55 196v690h189v-946q-1 -109 26 -170h-170q-25 70 -30 154h-5q-92 -174 -276 -174z" />
    <glyph glyph-name="v" unicode="v" horiz-adv-x="940" 
d="M567 0h-194l-334 1116h203l178 -655l49 -209h4q25 106 51 209l172 655h203z" />
    <glyph glyph-name="w" unicode="w" horiz-adv-x="1556" 
d="M1198 0h-194l-177 633l-49 207h-4q-20 -106 -49 -209l-174 -631h-193l-319 1116h203l168 -655l43 -211h4q27 119 51 211l182 655h172l187 -653l51 -213h4q20 119 43 211l166 655h203z" />
    <glyph glyph-name="x" unicode="x" horiz-adv-x="925" 
d="M465 436h-4q-31 -74 -60 -135l-143 -301h-197l271 559l-271 557h197l143 -301q20 -38 50 -115l10 -20h4q31 80 57 135l144 301h196l-270 -557l270 -559h-196l-144 301q-15 32 -37 83q-22 52 -20 52z" />
    <glyph glyph-name="y" unicode="y" horiz-adv-x="972" 
d="M230 -246q72 0 108 60t70 186l-353 1116h213l183 -645q8 -33 19 -77t17 -72t7 -29h4q23 104 43 178l174 645h200l-309 -1089q-68 -240 -148 -346q-80 -107 -212 -107q-133 0 -230 70l90 159q52 -49 124 -49z" />
    <glyph glyph-name="z" unicode="z" horiz-adv-x="933" 
d="M811 0h-764v4l434 805l72 121v4h-442v182h743v-4l-418 -776q-42 -76 -82 -135l-12 -17v-4h469v-180z" />
    <glyph glyph-name="braceleft" unicode="{" horiz-adv-x="542" 
d="M436 -299h-20q-156 0 -246 74t-90 225q0 104 71 286t70 238q0 111 -137 111v170q137 0 137 110q-1 57 -71 239t-70 286q0 152 91 226t245 75h20v-164h-22q-152 0 -152 -152q0 -71 66 -237t65 -262q0 -166 -149 -205v-4q150 -31 149 -203q1 -96 -65 -263t-66 -238t39 -111
t111 -39l24 2v-164z" />
    <glyph glyph-name="bar" unicode="|" horiz-adv-x="495" 
d="M348 -205h-201v1843h201v-1843z" />
    <glyph glyph-name="braceright" unicode="}" horiz-adv-x="542" 
d="M117 -299h-21v164q8 -2 25 -2q73 0 111 40q38 41 38 111t-65 237q-66 167 -66 263q0 172 150 203v4q-150 39 -150 205q0 96 66 263t65 236q0 152 -151 152h-23v164h21q155 0 245 -75t91 -226q0 -104 -71 -286t-71 -239q0 -111 138 -110v-170q-137 0 -138 -111
q0 -57 71 -238t71 -286q0 -152 -90 -226t-246 -73z" />
    <glyph glyph-name="asciitilde" unicode="~" horiz-adv-x="837" 
d="M612 911h123q0 -242 -192 -241q-66 0 -145 52t-109 52q-66 0 -66 -90h-123q0 242 191 242q65 0 145 -54t111 -53q31 -1 48 27t17 65z" />
    <glyph glyph-name="uni00A0" unicode="&#xa0;" horiz-adv-x="532" 
 />
    <glyph glyph-name="exclamdown" unicode="&#xa1;" horiz-adv-x="460" 
d="M229 1454q47 0 82 -34t35 -82t-35 -82t-82 -34t-82 34t-35 82t35 82t82 34zM137 1057h189v-1057h-189v1057z" />
    <glyph glyph-name="cent" unicode="&#xa2;" horiz-adv-x="892" 
d="M90 731q0 178 104 304t291 126q49 0 84 -8l64 205h82l-72 -228q106 -41 166 -147l-133 -125q-68 123 -178 123t-165 -72q-57 -72 -57 -178t56 -176t160 -70q125 0 188 127l141 -120q-111 -186 -329 -187q-66 0 -105 10l-59 -190h-82l65 217q-109 52 -165 156t-56 233z
" />
    <glyph glyph-name="sterling" unicode="&#xa3;" 
d="M397 23q-117 0 -184 -54l-102 142q141 156 141 360q0 59 -4 92h-182v133h167q-35 264 -34 322q0 200 91 318t283 118q274 0 355 -332l-168 -90q-37 240 -189 240q-88 0 -135 -68t-47 -186q0 -59 29 -322h319v-133h-309q4 -53 4 -71q0 -154 -86 -299l2 -3v-2q72 13 179 -7
q106 -19 153 -19q114 -1 190 69l72 -168q-78 -84 -213 -83q-57 0 -170 22t-162 21z" />
    <glyph glyph-name="currency" unicode="&#xa4;" horiz-adv-x="1060" 
d="M590 -20q-422 0 -459 620h-100v70h98v94h-98v70h100q37 621 459 620q303 0 407 -330l-168 -92q-59 240 -239 240q-240 0 -268 -438h362v-70h-367v-94h367v-70h-362q29 -440 268 -440q172 0 235 221l164 -98q-106 -303 -399 -303z" />
    <glyph glyph-name="yen" unicode="&#xa5;" horiz-adv-x="950" 
d="M571 0h-190v307h-248v70h248l-8 67l-29 78h-211v70h186l-292 842h209l178 -555l61 -213h4q33 117 64 213l174 555h211l-293 -842h186v-70h-211l-28 -78l-9 -67h248v-70h-250v-307z" />
    <glyph glyph-name="brokenbar" unicode="&#xa6;" horiz-adv-x="479" 
d="M332 821h-185v819h185v-819zM332 -203h-185v846h185v-846z" />
    <glyph glyph-name="section" unicode="&#xa7;" horiz-adv-x="1030" 
d="M260 801q0 -63 48 -101t108 -54q231 -57 301 -87q43 39 43 92q0 78 -71 118q-71 39 -197 71t-183 63q-49 -39 -49 -102zM506 -20q-285 0 -420 225l143 114q102 -168 293 -167q98 0 147 44q48 44 48 108q-1 64 -63 102t-152 62t-180 54t-153 94q-63 66 -63 180t95 187v4
q-53 59 -54 160q1 143 101 225t268 82q272 0 379 -258l-164 -102q-68 186 -229 186q-86 0 -135 -37t-49 -103q-1 -115 211 -167q89 -23 177 -51t150 -92q62 -66 62 -174t-78 -169v-4q72 -61 71 -168q-1 -139 -111 -237t-294 -98z" />
    <glyph glyph-name="dieresis" unicode="&#xa8;" horiz-adv-x="659" 
d="M580 1649q0 -41 -27 -66t-70 -25t-69 26q-26 24 -27 65q0 41 28 67q29 26 69 27q40 -1 68 -27t28 -67zM270 1649q0 -41 -26 -66t-70 -25q-43 0 -70 26q-27 24 -26 65q0 41 26 67t69 27q41 -1 69 -27t28 -67z" />
    <glyph glyph-name="copyright" unicode="&#xa9;" horiz-adv-x="1611" 
d="M803 385q-121 0 -185 96q-63 96 -63 248t63 247t185 95q152 0 205 -162l-105 -53q-27 92 -100 92q-57 0 -88 -57t-31 -162q0 -221 119 -221q71 0 104 100l105 -57q-53 -166 -209 -166zM197 716q0 -262 174 -438t436 -176t434 176t172 438q0 263 -172 439t-434 176
t-436 -176t-174 -439zM1546 717q0 -313 -213 -525t-527 -212t-527 210t-213 526q0 314 213 526t527 212t527 -212t213 -525z" />
    <glyph glyph-name="ordfeminine" unicode="&#xaa;" horiz-adv-x="550" 
d="M332 993l-29 135l-24 142h-5q-10 -61 -26 -142l-27 -135h111zM510 784h-133l-25 115h-151l-25 -115h-133l178 650h109z" />
    <glyph glyph-name="guillemotleft" unicode="&#xab;" horiz-adv-x="970" 
d="M586 725v-4q16 -6 112 -86l195 -162l-119 -117l-319 299v138l319 297l119 -115l-195 -162q-112 -92 -112 -88zM207 725v-4q16 -6 112 -86l195 -162l-119 -117l-319 299v138l319 297l119 -115l-195 -162q-112 -92 -112 -88z" />
    <glyph glyph-name="logicalnot" unicode="&#xac;" horiz-adv-x="722" 
d="M549 408l-193 190l-186 -186l-107 108l189 187l-195 192l117 117l191 -193l188 187l106 -109l-190 -186l197 -191z" />
    <glyph glyph-name="registered" unicode="&#xae;" horiz-adv-x="1611" 
d="M731 723h74q100 0 100 105t-100 106h-74v-211zM801 600h-70v-201h-129v660h199q113 -1 173 -63t60 -180t-88 -179l107 -238h-142q-61 135 -90 203q-10 -2 -20 -2zM807 102q262 0 434 176t172 438q0 263 -172 438t-434 175t-437 -175t-175 -438q0 -262 175 -438t437 -176z
M1546 717q0 -313 -213 -525t-527 -212t-527 210t-213 526q0 314 213 526t527 212t527 -212t213 -525z" />
    <glyph glyph-name="macron" unicode="&#xaf;" horiz-adv-x="604" 
d="M545 1640h-486v168h486v-168z" />
    <glyph glyph-name="degree" unicode="&#xb0;" horiz-adv-x="602" 
d="M416 1231q0 49 -32 81t-81 32t-83 -32t-34 -81t33 -80t83 -31t82 31t32 80zM565 1230q-1 -114 -73 -180t-190 -67q-118 0 -190 67q-72 66 -73 180q0 114 74 184q75 70 191 69q116 1 188 -69t73 -184z" />
    <glyph glyph-name="plusminus" unicode="&#xb1;" horiz-adv-x="716" 
d="M627 268h-539v168h539v-168zM440 596h-164v248h-239v151h239v248h164v-248h240v-151h-240v-248z" />
    <glyph glyph-name="twosuperior" unicode="&#xb2;" horiz-adv-x="557" 
d="M465 788h-404v5l234 346q47 70 47 118q0 74 -68 74q-78 0 -96 -117l-119 52q55 188 220 188q94 0 146 -55t52 -132t-57 -165l-68 -103l-69 -88v-6h182v-117z" />
    <glyph glyph-name="threesuperior" unicode="&#xb3;" horiz-adv-x="534" 
d="M307 1317h-235v117h399v-101l-164 -157l2 -5q82 -10 129 -60t47 -136q0 -87 -58 -147t-165 -60q-166 0 -223 158l113 63q25 -102 116 -102q45 1 70 27q24 26 24 76t-41 73q-43 22 -104 14l-53 92l61 66l82 78v4z" />
    <glyph glyph-name="acute" unicode="&#xb4;" horiz-adv-x="536" 
d="M522 1696l-456 -193l-58 123l445 217z" />
    <glyph glyph-name="paragraph" unicode="&#xb6;" horiz-adv-x="1030" 
d="M764 0h-178v399q-242 0 -376 154t-134 366q0 211 117 363t344 152h227v-1434zM907 0h-82v1434h82v-1434z" />
    <glyph glyph-name="periodcentered" unicode="&#xb7;" horiz-adv-x="423" 
d="M211 539q-47 -1 -82 33t-35 82t35 82t82 34t82 -34t35 -82t-35 -82t-82 -33z" />
    <glyph glyph-name="cedilla" unicode="&#xb8;" horiz-adv-x="559" 
d="M295 -428q51 0 79 28t28 70t-30 69q-30 28 -88 28t-94 -48l-104 56l64 278h122l-47 -196l4 -2q41 20 88 20q93 0 155 -57q62 -56 62 -156t-65 -158q-66 -58 -170 -59q-158 0 -221 106l108 93q35 -72 109 -72z" />
    <glyph glyph-name="onesuperior" unicode="&#xb9;" horiz-adv-x="354" 
d="M262 788h-129v523h-65v123h194v-646z" />
    <glyph glyph-name="ordmasculine" unicode="&#xba;" horiz-adv-x="571" 
d="M285 872q106 0 106 234t-106 233q-106 1 -106 -233t106 -234zM285 760q-231 0 -231 347t230 347q232 0 232 -347t-231 -347z" />
    <glyph glyph-name="guillemotright" unicode="&#xbb;" horiz-adv-x="970" 
d="M754 725q0 -2 -113 88l-195 162l119 115l320 -297v-138l-320 -299l-119 117l195 162q96 80 113 86v4zM373 725q0 -2 -113 88l-194 162l118 115l320 -297v-138l-320 -299l-118 117l194 162q96 80 113 86v4z" />
    <glyph glyph-name="onequarter" unicode="&#xbc;" horiz-adv-x="970" 
d="M295 788h-129v523h-66v123h195v-646zM182 0h-145l743 1434h148zM705 231v234h-5q-37 -119 -98 -227v-2q2 -2 2 -5h101zM819 0h-129v117h-241l235 530h135v-405h74v-125h-74v-117z" />
    <glyph glyph-name="onehalf" unicode="&#xbd;" horiz-adv-x="1067" 
d="M954 0h-403v4l233 346q47 70 47 119q0 74 -67 74q-78 0 -96 -117l-119 51q55 188 219 189q94 0 146 -56t52 -132q0 -77 -57 -165l-67 -102l-70 -88v-6h182v-117zM295 788h-129v523h-66v123h195v-646zM182 0h-145l743 1434h148z" />
    <glyph glyph-name="threequarters" unicode="&#xbe;" horiz-adv-x="1032" 
d="M164 989q25 -102 118 -102t93 103q0 50 -42 73q-43 22 -104 14l-53 92l62 66l81 78v4h-235v117h399v-101l-164 -157l3 -5q82 -10 129 -60t47 -136q0 -87 -58 -147t-166 -60q-166 0 -223 158zM244 0h-146l744 1434h147zM772 231v234h-6q-33 -106 -96 -227v-7h102zM885 0
h-129v117h-242l238 530h133v-405h73v-125h-73v-117z" />
    <glyph glyph-name="questiondown" unicode="&#xbf;" horiz-adv-x="876" 
d="M322 1339q0 47 33 81q34 34 82 34t82 -34t34 -81t-34 -82t-82 -35t-82 35q-33 35 -33 82zM432 162q94 0 157 71q62 72 73 187l174 -94q-34 -154 -140 -250t-276 -96t-275 102q-104 102 -104 276q0 82 35 156t84 127t98 100t84 99t35 102q0 51 -31 102l158 91
q70 -78 70 -202t-119 -251q-49 -53 -99 -103q-120 -121 -119 -217t51 -148t144 -52z" />
    <glyph glyph-name="Agrave" unicode="&#xc0;" horiz-adv-x="1030" 
d="M698 1503l-456 193l67 147l447 -217zM680 463l-133 541l-29 141h-4q-16 -86 -31 -141l-133 -541h330zM989 0h-198l-74 293h-406l-71 -293h-199l373 1434h202z" />
    <glyph glyph-name="Aacute" unicode="&#xc1;" horiz-adv-x="1030" 
d="M770 1696l-457 -193l-57 123l444 217zM680 463l-133 541l-29 141h-4q-16 -86 -31 -141l-133 -541h330zM989 0h-198l-74 293h-406l-71 -293h-199l373 1434h202z" />
    <glyph glyph-name="Acircumflex" unicode="&#xc2;" horiz-adv-x="1030" 
d="M731 1534l-123 131l-84 96h-4q-43 -53 -84 -96l-123 -131l-112 123l241 225h158l242 -225zM680 463l-133 541l-29 141h-4q-16 -86 -31 -141l-133 -541h330zM989 0h-198l-74 293h-406l-71 -293h-199l373 1434h202z" />
    <glyph glyph-name="Atilde" unicode="&#xc3;" horiz-adv-x="1030" 
d="M696 1812h123q0 -242 -192 -241q-66 0 -145 52t-109 52q-66 0 -66 -90h-123q0 242 191 242q65 0 145 -53q80 -54 111 -54t48 28t17 64zM680 463l-133 541l-29 141h-4q-16 -86 -31 -141l-133 -541h330zM989 0h-198l-74 293h-406l-71 -293h-199l373 1434h202z" />
    <glyph glyph-name="Adieresis" unicode="&#xc4;" horiz-adv-x="1030" 
d="M770 1649q0 -41 -27 -66t-69 -25t-70 26q-27 24 -26 65q0 41 28 67t68 27q40 -1 68 -27t28 -67zM461 1649q0 -41 -27 -66q-28 -25 -70 -25t-69 26q-27 24 -27 65t27 67t69 27q42 -1 70 -27t27 -67zM680 463l-133 541l-29 141h-4q-16 -86 -31 -141l-133 -541h330zM989 0
h-198l-74 293h-406l-71 -293h-199l373 1434h202z" />
    <glyph glyph-name="Aring" unicode="&#xc5;" horiz-adv-x="1030" 
d="M594 1753q0 33 -22 55t-54 21q-32 0 -56 -22q-22 -21 -22 -53t23 -52t55 -20t54 18q22 20 22 53zM715 1752q-1 -85 -55 -135t-142 -50t-143 51t-56 135q1 84 57 137q56 54 143 54t141 -54t55 -138zM680 463l-133 541l-29 141h-4q-16 -86 -31 -141l-133 -541h330zM989 0
h-198l-74 293h-406l-71 -293h-199l373 1434h202z" />
    <glyph glyph-name="AE" unicode="&#xc6;" horiz-adv-x="1579" 
d="M709 475v703q-10 -14 -41 -95t-52 -131l-206 -477h299zM1434 0h-725v293h-371l-129 -293h-203l637 1434h791v-183h-535v-493h457v-180h-457v-398h535v-180z" />
    <glyph glyph-name="Ccedilla" unicode="&#xc7;" horiz-adv-x="1046" 
d="M561 -428q51 0 79 28t28 70t-30 69q-30 28 -88 28t-93 -48l-105 56l54 233q-315 121 -316 709q0 311 104 515q54 106 150 164t227 58q309 0 422 -326l-166 -92q-70 238 -256 238q-153 0 -223 -152t-70 -406t72 -405q70 -152 221 -151q178 0 250 219l164 -98
q-117 -301 -414 -301q-35 0 -51 2l-28 -125l4 -2q41 20 88 20q94 0 155 -57q61 -56 61 -156t-65 -158q-66 -58 -170 -59q-158 0 -221 106l109 93q35 -72 108 -72z" />
    <glyph glyph-name="Egrave" unicode="&#xc8;" horiz-adv-x="1038" 
d="M725 1503l-457 193l68 147l446 -217zM893 0h-725v1434h725v-183h-537v-493h457v-180h-457v-398h537v-180z" />
    <glyph glyph-name="Eacute" unicode="&#xc9;" horiz-adv-x="1038" 
d="M801 1696l-457 -193l-57 123l444 217zM893 0h-725v1434h725v-183h-537v-493h457v-180h-457v-398h537v-180z" />
    <glyph glyph-name="Ecircumflex" unicode="&#xca;" horiz-adv-x="1038" 
d="M735 1534l-123 131l-84 96h-4q-43 -53 -84 -96l-123 -131l-112 123l241 225h158l242 -225zM893 0h-725v1434h725v-183h-537v-493h457v-180h-457v-398h537v-180z" />
    <glyph glyph-name="Edieresis" unicode="&#xcb;" horiz-adv-x="1038" 
d="M784 1649q0 -41 -26 -66t-70 -25q-43 0 -70 26q-27 24 -26 65q0 41 28 67t68 27q40 -1 68 -27t28 -67zM475 1649q-1 -41 -27 -66t-69 -25t-70 26q-27 24 -26 65t27 67t68 27q42 -1 70 -27t27 -67zM893 0h-725v1434h725v-183h-537v-493h457v-180h-457v-398h537v-180z" />
    <glyph glyph-name="Igrave" unicode="&#xcc;" horiz-adv-x="524" 
d="M432 1503l-457 193l68 147l446 -217zM356 0h-188v1434h188v-1434z" />
    <glyph glyph-name="Iacute" unicode="&#xcd;" horiz-adv-x="524" 
d="M535 1696l-457 -193l-58 123l445 217zM358 0h-188v1434h188v-1434z" />
    <glyph glyph-name="Icircumflex" unicode="&#xce;" horiz-adv-x="524" 
d="M477 1534l-123 131l-84 96h-4q-43 -53 -84 -96l-123 -131l-112 123l241 225h158l242 -225zM356 0h-188v1434h188v-1434z" />
    <glyph glyph-name="Idieresis" unicode="&#xcf;" horiz-adv-x="524" 
d="M516 1649q0 -41 -27 -66t-69 -25t-70 26q-27 24 -26 65q0 41 28 67t68 27q40 -1 68 -27t28 -67zM207 1649q0 -41 -27 -66q-28 -25 -70 -25t-69 26q-27 24 -27 65t27 67t69 27q42 -1 70 -27t27 -67zM356 0h-188v1434h188v-1434z" />
    <glyph glyph-name="Eth" unicode="&#xd0;" horiz-adv-x="1110" 
d="M346 180h148q166 0 246 144t81 394q0 249 -82 392t-254 143h-139v-460h219v-148h-219v-465zM494 0h-336v645h-119v148h119v641h327q322 0 452 -295q71 -163 72 -453t-123 -488t-392 -198z" />
    <glyph glyph-name="Ntilde" unicode="&#xd1;" horiz-adv-x="1204" 
d="M793 1812h122q0 -242 -192 -241q-67 0 -145 52t-109 52q-66 0 -66 -90h-122q0 242 190 242q65 0 145 -53q80 -54 111 -54t49 28t17 64zM862 1434h174v-1434h-176l-522 1055h-4q6 -74 6 -142v-913h-172v1434h176l465 -922l53 -125h4l-4 139v908z" />
    <glyph glyph-name="Ograve" unicode="&#xd2;" horiz-adv-x="1132" 
d="M764 1503l-457 193l68 147l446 -217zM566 160q146 0 217 147t71 410q0 557 -288 557t-287 -557q0 -262 70 -410q71 -147 217 -147zM565 -20q-167 0 -277 102t-154 262t-44 373t44 373t154 262t277 102q248 0 363 -203q114 -203 114 -535t-114 -534q-115 -202 -363 -202z
" />
    <glyph glyph-name="Oacute" unicode="&#xd3;" horiz-adv-x="1132" 
d="M819 1696l-457 -193l-57 123l445 217zM566 160q146 0 217 147t71 410q0 557 -288 557t-287 -557q0 -262 70 -410q71 -147 217 -147zM565 -20q-167 0 -277 102t-154 262t-44 373t44 373t154 262t277 102q248 0 363 -203q114 -203 114 -535t-114 -534q-115 -202 -363 -202z
" />
    <glyph glyph-name="Ocircumflex" unicode="&#xd4;" horiz-adv-x="1132" 
d="M778 1534l-123 131l-84 96h-4q-43 -53 -84 -96l-123 -131l-112 123l241 225h158l242 -225zM566 160q146 0 217 147t71 410q0 557 -288 557t-287 -557q0 -262 70 -410q71 -147 217 -147zM565 -20q-167 0 -277 102t-154 262t-44 373t44 373t154 262t277 102q248 0 363 -203
q114 -203 114 -535t-114 -534q-115 -202 -363 -202z" />
    <glyph glyph-name="Otilde" unicode="&#xd5;" horiz-adv-x="1132" 
d="M762 1812h123q0 -242 -193 -241q-66 0 -144 52t-110 52q-66 0 -65 -90h-123q0 242 190 242q66 0 146 -53q80 -54 110 -54t48 28t18 64zM566 160q146 0 217 147t71 410q0 557 -288 557t-287 -557q0 -262 70 -410q71 -147 217 -147zM565 -20q-167 0 -277 102t-154 262
t-44 373t44 373t154 262t277 102q248 0 363 -203q114 -203 114 -535t-114 -534q-115 -202 -363 -202z" />
    <glyph glyph-name="Odieresis" unicode="&#xd6;" horiz-adv-x="1132" 
d="M819 1649q-1 -41 -27 -66t-69 -25t-70 26q-27 24 -26 65q-1 41 27 67t69 27q41 -1 69 -27t27 -67zM510 1649q0 -41 -27 -66t-69 -25t-70 26q-27 24 -27 65t27 67t69 27q41 -1 69 -27t28 -67zM566 160q146 0 217 147t71 410q0 557 -288 557t-287 -557q0 -262 70 -410
q71 -147 217 -147zM565 -20q-167 0 -277 102t-154 262t-44 373t44 373t154 262t277 102q248 0 363 -203q114 -203 114 -535t-114 -534q-115 -202 -363 -202z" />
    <glyph glyph-name="multiply" unicode="&#xd7;" horiz-adv-x="722" 
d="M537 420l-181 178l-174 -174l-108 108l178 175l-182 180l116 117l179 -181l176 174l108 -106l-180 -176l184 -178z" />
    <glyph glyph-name="Oslash" unicode="&#xd8;" horiz-adv-x="1130" 
d="M565 1274q-287 0 -286 -557q-1 -277 81 -406l357 893q-59 70 -152 70zM852 717q0 280 -84 411l-358 -895q61 -74 155 -73q287 0 287 557zM565 -20q-167 0 -277 102t-154 262t-44 373t44 373t154 262t278 102t277 -102t153 -262t44 -373t-44 -373t-154 -262t-277 -102z
" />
    <glyph glyph-name="Ugrave" unicode="&#xd9;" horiz-adv-x="1159" 
d="M774 1503l-457 193l68 147l446 -217zM811 498v936h190v-957q-1 -246 -113 -372q-112 -125 -306 -125t-310 126q-115 126 -114 373v955h188v-938q0 -336 234 -336q129 0 180 89t51 249z" />
    <glyph glyph-name="Uacute" unicode="&#xda;" horiz-adv-x="1159" 
d="M848 1696l-457 -193l-57 123l444 217zM811 498v936h190v-957q-1 -246 -113 -372q-112 -125 -306 -125t-310 126q-115 126 -114 373v955h188v-938q0 -336 234 -336q129 0 180 89t51 249z" />
    <glyph glyph-name="Ucircumflex" unicode="&#xdb;" horiz-adv-x="1159" 
d="M793 1534l-123 131l-84 96h-4q-43 -53 -84 -96l-123 -131l-113 123l242 225h158l241 -225zM811 498v936h190v-957q-1 -246 -113 -372q-112 -125 -306 -125t-310 126q-115 126 -114 373v955h188v-938q0 -336 234 -336q129 0 180 89t51 249z" />
    <glyph glyph-name="Udieresis" unicode="&#xdc;" horiz-adv-x="1159" 
d="M829 1649q-1 -41 -27 -66t-69 -25t-69 26q-26 24 -27 65q0 41 28 67q29 26 69 27q40 -1 68 -27t27 -67zM520 1649q0 -41 -26 -66t-70 -25q-43 0 -70 26q-27 24 -26 65q0 41 26 67t69 27q41 -1 69 -27t28 -67zM811 498v936h190v-957q-1 -246 -113 -372
q-112 -125 -306 -125t-310 126q-115 126 -114 373v955h188v-938q0 -336 234 -336q129 0 180 89t51 249z" />
    <glyph glyph-name="Yacute" unicode="&#xdd;" horiz-adv-x="946" 
d="M727 1696l-457 -193l-57 123l444 217zM567 0h-190v416l-354 1018h208l193 -607q33 -98 47 -182h4q14 84 45 182l193 607h211l-357 -1018v-416z" />
    <glyph glyph-name="Thorn" unicode="&#xde;" horiz-adv-x="1021" 
d="M356 397h144q132 0 202 93t70 244t-71 243t-203 92h-142v-672zM356 0h-188v1434h188v-185h162q219 0 331 -146q112 -145 112 -367t-119 -372t-346 -149h-140v-215z" />
    <glyph glyph-name="germandbls" unicode="&#xdf;" horiz-adv-x="1071" 
d="M647 150q84 0 130 40t46 106q0 64 -40 108t-96 75q-55 31 -113 65t-98 95t-40 138q0 133 90 213q37 32 74 62q92 74 91 149t-48 113t-126 38t-131 -58t-52 -164v-1130h-191v1116q1 195 105 298q104 104 265 104t259 -81t98 -228t-88 -223q-36 -32 -72 -60
q-88 -68 -88 -126q1 -58 41 -95t96 -66t111 -65q56 -36 96 -102t40 -159q0 -147 -92 -240t-269 -93q-129 -1 -225 75l80 154q63 -59 147 -59z" />
    <glyph glyph-name="agrave" unicode="&#xe0;" horiz-adv-x="1005" 
d="M698 1200l-456 193l67 147l447 -217zM672 440v80h-45q-171 0 -267 -55t-96 -162q0 -80 47 -124t115 -44q114 0 180 89t66 216zM393 -20q-147 0 -228 90t-81 246t146 250q146 95 442 96v67q0 117 -48 179t-141 63q-147 0 -225 -164l-121 127q145 203 377 203
q152 0 249 -108t97 -318v-537q0 -113 33 -174h-184q-16 20 -35 154q-92 -174 -281 -174z" />
    <glyph glyph-name="aacute" unicode="&#xe1;" horiz-adv-x="1005" 
d="M745 1395l-456 -193l-58 123l445 217zM672 440v80h-45q-171 0 -267 -55t-96 -162q0 -80 47 -124t115 -44q114 0 180 89t66 216zM393 -20q-147 0 -228 90t-81 246t146 250q146 95 442 96v67q0 117 -48 179t-141 63q-147 0 -225 -164l-121 127q145 203 377 203
q152 0 249 -108t97 -318v-537q0 -113 33 -174h-184q-16 20 -35 154q-92 -174 -281 -174z" />
    <glyph glyph-name="acircumflex" unicode="&#xe2;" horiz-adv-x="1005" 
d="M707 1217l-123 131l-84 96h-4q-43 -53 -84 -96l-123 -131l-113 122l242 226h157l242 -226zM672 440v80h-45q-171 0 -267 -55t-96 -162q0 -80 47 -124t115 -44q114 0 180 89t66 216zM393 -20q-147 0 -228 90t-81 246t146 250q146 95 442 96v67q0 117 -48 179t-141 63
q-147 0 -225 -164l-121 127q145 203 377 203q152 0 249 -108t97 -318v-537q0 -113 33 -174h-184q-16 20 -35 154q-92 -174 -281 -174z" />
    <glyph glyph-name="atilde" unicode="&#xe3;" horiz-adv-x="1005" 
d="M682 1475h123q0 -242 -193 -242q-66 0 -144 52t-110 52q-66 0 -65 -90h-123q0 242 190 242q66 0 146 -53q80 -54 110 -54t49 28q17 28 17 65zM672 440v80h-45q-171 0 -267 -55t-96 -162q0 -80 47 -124t115 -44q114 0 180 89t66 216zM393 -20q-147 0 -228 90t-81 246
t146 250q146 95 442 96v67q0 117 -48 179t-141 63q-147 0 -225 -164l-121 127q145 203 377 203q152 0 249 -108t97 -318v-537q0 -113 33 -174h-184q-16 20 -35 154q-92 -174 -281 -174z" />
    <glyph glyph-name="adieresis" unicode="&#xe4;" horiz-adv-x="1005" 
d="M741 1356q-1 -41 -27 -66q-26 -24 -69 -24t-70 24t-26 66q0 42 28 68q29 26 69 26t68 -26t27 -68zM432 1356q0 -41 -26 -66q-26 -24 -70 -24q-43 0 -70 24t-26 66q0 42 26 68t69 26q41 0 69 -26t28 -68zM672 440v80h-45q-171 0 -267 -55t-96 -162q0 -80 47 -124t115 -44
q114 0 180 89t66 216zM393 -20q-147 0 -228 90t-81 246t146 250q146 95 442 96v67q0 117 -48 179t-141 63q-147 0 -225 -164l-121 127q145 203 377 203q152 0 249 -108t97 -318v-537q0 -113 33 -174h-184q-16 20 -35 154q-92 -174 -281 -174z" />
    <glyph glyph-name="aring" unicode="&#xe5;" horiz-adv-x="1005" 
d="M571 1425q0 33 -21 55q-22 22 -54 22t-56 -22q-22 -22 -22 -54t22 -52t56 -20q33 0 54 19t21 52zM297 1425q0 83 56 137q55 54 143 54t142 -54t54 -138q0 -85 -54 -135t-142 -50t-144 51q-55 51 -55 135zM672 440v80h-45q-171 0 -267 -55t-96 -162q0 -80 47 -124t115 -44
q114 0 180 89t66 216zM393 -20q-147 0 -228 90t-81 246t146 250q146 95 442 96v67q0 117 -48 179t-141 63q-147 0 -225 -164l-121 127q145 203 377 203q152 0 249 -108t97 -318v-537q0 -113 33 -174h-184q-16 20 -35 154q-92 -174 -281 -174z" />
    <glyph glyph-name="ae" unicode="&#xe6;" horiz-adv-x="1572" 
d="M1092 979q-203 0 -232 -324h440q-14 324 -208 324zM672 440v80h-45q-171 0 -267 -55t-96 -162q0 -80 47 -124t115 -44q114 0 180 88t66 217zM1110 -20q-264 0 -348 284q-109 -285 -356 -284q-150 0 -236 88t-86 246t146 252q146 95 442 96v67q0 113 -48 177t-141 65
q-147 0 -225 -164l-121 127q150 203 365 203t274 -254h4q92 254 320 254t312 -194q71 -165 73 -431h-627q0 -170 66 -267t182 -98q157 1 231 189l140 -105q-63 -129 -149 -190t-218 -61z" />
    <glyph glyph-name="ccedilla" unicode="&#xe7;" horiz-adv-x="935" 
d="M524 -125q94 0 156 -57q62 -56 61 -156q0 -100 -65 -159q-66 -58 -170 -58q-158 0 -221 106l108 93q37 -72 99 -72t89 28t27 70t-29 69q-31 28 -89 28t-93 -48l-104 56l53 235q-254 111 -254 545q0 270 110 426t304 156q256 0 362 -254l-155 -113q-43 188 -199 188
q-229 0 -229 -401t229 -401q145 0 205 192l149 -110q-98 -258 -362 -258l-45 2l-29 -125l4 -2q41 20 88 20z" />
    <glyph glyph-name="egrave" unicode="&#xe8;" horiz-adv-x="993" 
d="M717 1200l-457 193l68 147l446 -217zM514 979q-109 0 -166 -91t-67 -249h442q-10 340 -209 340zM508 -20q-200 0 -308 152t-108 421q0 270 111 427t305 157q338 0 387 -405q10 -83 10 -185v-51h-624q14 -348 245 -349q160 1 232 189l141 -105q-63 -127 -155 -189
t-236 -62z" />
    <glyph glyph-name="eacute" unicode="&#xe9;" horiz-adv-x="993" 
d="M762 1393l-457 -193l-57 123l444 217zM514 979q-109 0 -166 -91t-67 -249h442q-10 340 -209 340zM508 -20q-200 0 -308 152t-108 421q0 270 111 427t305 157q338 0 387 -405q10 -83 10 -185v-51h-624q14 -348 245 -349q160 1 232 189l141 -105q-63 -127 -155 -189
t-236 -62z" />
    <glyph glyph-name="ecircumflex" unicode="&#xea;" horiz-adv-x="993" 
d="M717 1235l-123 131l-84 96h-4q-43 -53 -84 -96l-123 -131l-113 123l242 225h158l241 -225zM514 979q-109 0 -166 -91t-67 -249h442q-10 340 -209 340zM508 -20q-200 0 -308 152t-108 421q0 270 111 427t305 157q338 0 387 -405q10 -83 10 -185v-51h-624q14 -348 245 -349
q160 1 232 189l141 -105q-63 -127 -155 -189t-236 -62z" />
    <glyph glyph-name="edieresis" unicode="&#xeb;" horiz-adv-x="993" 
d="M750 1358q0 -41 -27 -66q-27 -24 -70 -24t-69 24t-27 66q0 42 28 68q29 26 69 26t68 -26t28 -68zM440 1358q0 -41 -26 -66q-26 -24 -70 -24q-43 0 -70 24t-26 66q0 42 26 68t69 26q41 0 69 -26t28 -68zM514 979q-109 0 -166 -91t-67 -249h442q-10 340 -209 340zM508 -20
q-200 0 -308 152t-108 421q0 270 111 427t305 157q338 0 387 -405q10 -83 10 -185v-51h-624q14 -348 245 -349q160 1 232 189l141 -105q-63 -127 -155 -189t-236 -62z" />
    <glyph glyph-name="igrave" unicode="&#xec;" horiz-adv-x="528" 
d="M356 0h-188v1116h188v-1116zM391 1223l-330 139l68 147l320 -163z" />
    <glyph glyph-name="iacute" unicode="&#xed;" horiz-adv-x="528" 
d="M365 0h-189v1116h189v-1116zM455 1362l-330 -139l-57 123l319 163z" />
    <glyph glyph-name="icircumflex" unicode="&#xee;" horiz-adv-x="546" 
d="M461 1243l-109 117l-76 86h-2q-39 -49 -75 -86l-109 -117l-100 109l215 200h139l217 -200zM367 0h-189v1116h189v-1116z" />
    <glyph glyph-name="idieresis" unicode="&#xef;" horiz-adv-x="507" 
d="M344 0h-188v1116h188v-1116zM473 1356q0 -41 -27 -66q-28 -24 -70 -24t-69 24t-26 66q-1 42 27 68t69 26t69 -26t27 -68zM227 1356q-1 -41 -27 -66q-26 -24 -69 -24t-70 24t-26 66t27 68t68 26t70 -26t27 -68z" />
    <glyph glyph-name="eth" unicode="&#xf0;" 
d="M700 418v200q0 324 -200 324q-217 0 -217 -394t217 -394q96 0 148 74t52 190zM467 1362q-33 0 -49 -2v174h24q174 0 279 -78l113 121l73 -80l-114 -108q92 -117 92 -314v-903q-1 -98 26 -172h-166q-20 49 -28 133h-4q-82 -153 -258 -153t-270 150q-93 151 -93 417t99 416
t280 149q141 0 227 -125h4v109q0 102 -38 168l-97 -90l-55 55l92 98q-49 35 -137 35z" />
    <glyph glyph-name="ntilde" unicode="&#xf1;" horiz-adv-x="1089" 
d="M758 1509h123q0 -242 -193 -241q-66 0 -144 52t-110 52q-66 0 -65 -90h-123q0 242 190 242q66 0 146 -54t110 -53q30 -1 48 27t18 65zM948 0h-188v621q0 166 -39 256t-158 90q-221 0 -221 -346v-621h-188v944q0 104 -27 172h170q25 -72 31 -155h4q92 176 276 176
t262 -123t78 -320v-694z" />
    <glyph glyph-name="ograve" unicode="&#xf2;" horiz-adv-x="1019" 
d="M713 1200l-457 193l68 147l446 -217zM510 -20q-207 0 -312 152q-106 152 -106 426q0 273 106 426t312 153q207 0 312 -153q106 -153 106 -426q0 -274 -106 -426t-312 -152zM510 152q225 0 225 407q0 184 -54 296t-171 112t-172 -112t-55 -294q0 -181 55 -295t172 -114z
" />
    <glyph glyph-name="oacute" unicode="&#xf3;" horiz-adv-x="1019" 
d="M762 1399l-457 -193l-57 123l444 217zM510 -20q-207 0 -312 152q-106 152 -106 426q0 273 106 426t312 153q207 0 312 -153q106 -153 106 -426q0 -274 -106 -426t-312 -152zM510 152q225 0 225 407q0 184 -54 296t-171 112t-172 -112t-55 -294q0 -181 55 -295t172 -114z
" />
    <glyph glyph-name="ocircumflex" unicode="&#xf4;" horiz-adv-x="1019" 
d="M721 1233l-123 131l-84 96h-4q-43 -53 -84 -96l-123 -131l-113 123l242 225h158l241 -225zM510 -20q-207 0 -312 152q-106 152 -106 426q0 273 106 426t312 153q207 0 312 -153q106 -153 106 -426q0 -274 -106 -426t-312 -152zM510 152q225 0 225 407q0 184 -54 296
t-171 112t-172 -112t-55 -294q0 -181 55 -295t172 -114z" />
    <glyph glyph-name="otilde" unicode="&#xf5;" horiz-adv-x="1019" 
d="M694 1509h123q0 -242 -192 -241q-66 0 -145 52t-109 52q-66 0 -66 -90h-123q0 242 191 242q65 0 145 -54t111 -53q31 -1 48 27t17 65zM510 -20q-207 0 -312 152q-106 152 -106 426q0 273 106 426t312 153q207 0 312 -153q106 -153 106 -426q0 -274 -106 -426t-312 -152z
M510 152q225 0 225 407q0 184 -54 296t-171 112t-172 -112t-55 -294q0 -181 55 -295t172 -114z" />
    <glyph glyph-name="odieresis" unicode="&#xf6;" horiz-adv-x="1019" 
d="M762 1358q0 -41 -27 -66q-27 -24 -69 -24t-70 24q-27 24 -27 66t28 68t69 26q40 0 68 -26t28 -68zM453 1358q0 -41 -27 -66q-27 -24 -70 -24q-44 0 -70 24t-26 66t27 68t69 26t69 -26q28 -26 28 -68zM510 -20q-207 0 -312 152q-106 152 -106 426q0 273 106 426t312 153
q207 0 312 -153q106 -153 106 -426q0 -274 -106 -426t-312 -152zM510 152q225 0 225 407q0 184 -54 296t-171 112t-172 -112t-55 -294q0 -181 55 -295t172 -114z" />
    <glyph glyph-name="divide" unicode="&#xf7;" horiz-adv-x="802" 
d="M406 870q-45 0 -77 32t-32 76t32 75t77 31q44 0 76 -32q32 -30 32 -74t-32 -76t-76 -32zM406 272q-45 0 -77 32t-32 76t32 75t77 31q44 0 76 -32q32 -30 32 -74t-32 -76t-76 -32zM743 596h-684v168h684v-168z" />
    <glyph glyph-name="oslash" unicode="&#xf8;" horiz-adv-x="1017" 
d="M283 560q0 -184 51 -284l301 639q-51 51 -127 52q-117 0 -171 -112q-54 -111 -54 -295zM508 152q227 0 227 407q0 181 -51 283l-303 -639q51 -51 127 -51zM508 -20q-207 0 -311 152t-105 427q0 274 104 426t312 152q207 0 312 -153q106 -153 106 -426q0 -274 -106 -426
t-312 -152z" />
    <glyph glyph-name="ugrave" unicode="&#xf9;" horiz-adv-x="1077" 
d="M715 1200l-457 193l68 147l446 -217zM467 -20q-184 0 -262 122t-78 318v696h188v-622q0 -208 50 -276q50 -69 154 -70t159 82t55 196v690h189v-946q-1 -109 26 -170h-170q-25 70 -30 154h-5q-92 -174 -276 -174z" />
    <glyph glyph-name="uacute" unicode="&#xfa;" horiz-adv-x="1077" 
d="M774 1393l-457 -193l-57 123l445 217zM467 -20q-184 0 -262 122t-78 318v696h188v-622q0 -208 50 -276q50 -69 154 -70t159 82t55 196v690h189v-946q-1 -109 26 -170h-170q-25 70 -30 154h-5q-92 -174 -276 -174z" />
    <glyph glyph-name="ucircumflex" unicode="&#xfb;" horiz-adv-x="1077" 
d="M727 1235l-123 131l-84 96h-4q-43 -53 -84 -96l-123 -131l-112 123l241 225h158l242 -225zM467 -20q-184 0 -262 122t-78 318v696h188v-622q0 -208 50 -276q50 -69 154 -70t159 82t55 196v690h189v-946q-1 -109 26 -170h-170q-25 70 -30 154h-5q-92 -174 -276 -174z" />
    <glyph glyph-name="udieresis" unicode="&#xfc;" horiz-adv-x="1077" 
d="M776 1358q0 -41 -26 -66q-26 -24 -70 -24q-43 0 -70 24t-26 66q0 42 28 68t68 26t68 -26t28 -68zM467 1358q0 -41 -27 -66q-28 -24 -70 -24t-69 24t-27 66t27 68t69 26t70 -26t27 -68zM467 -20q-184 0 -262 122t-78 318v696h188v-622q0 -208 50 -276q50 -69 154 -70
t159 82t55 196v690h189v-946q-1 -109 26 -170h-170q-25 70 -30 154h-5q-92 -174 -276 -174z" />
    <glyph glyph-name="yacute" unicode="&#xfd;" horiz-adv-x="972" 
d="M731 1393l-457 -193l-57 123l445 217zM230 -246q72 0 108 60t70 186l-353 1116h213l183 -645q8 -33 19 -77t17 -72t7 -29h4q23 104 43 178l174 645h200l-309 -1089q-68 -240 -148 -346q-80 -107 -212 -107q-133 0 -230 70l90 159q52 -49 124 -49z" />
    <glyph glyph-name="thorn" unicode="&#xfe;" horiz-adv-x="1040" 
d="M338 643v-184q0 -311 199 -312q219 0 219 406t-219 405q-199 0 -199 -315zM338 -410h-191v1905h191v-365l-2 -131h4q88 137 238 138q174 0 271 -158t97 -426t-92 -421q-92 -152 -261 -152t-255 131h-4q4 -59 4 -127v-394z" />
    <glyph glyph-name="ydieresis" unicode="&#xff;" horiz-adv-x="972" 
d="M748 1358q0 -41 -27 -66q-27 -24 -70 -24t-69 24t-27 66q0 42 28 68q29 26 69 26t68 -26t28 -68zM438 1358q0 -41 -26 -66q-26 -24 -70 -24q-43 0 -70 24t-26 66q0 42 26 68t69 26q41 0 69 -26t28 -68zM230 -246q72 0 108 60t70 186l-353 1116h213l183 -645q8 -33 19 -77
t17 -72t7 -29h4q23 104 43 178l174 645h200l-309 -1089q-68 -240 -148 -346q-80 -107 -212 -107q-133 0 -230 70l90 159q52 -49 124 -49z" />
    <glyph glyph-name="dotlessi" unicode="&#x131;" horiz-adv-x="491" 
d="M340 0h-188v1116h188v-1116z" />
    <glyph glyph-name="Lslash" unicode="&#x141;" horiz-adv-x="899" 
d="M854 0h-680v528l-123 -53l-28 72l151 65v822h191v-740l282 123l29 -72l-311 -135v-430h489v-180z" />
    <glyph glyph-name="lslash" unicode="&#x142;" horiz-adv-x="514" 
d="M350 0h-188v535l-121 -54l-29 72l150 65v877h188v-795l121 52l29 -72l-150 -64v-616z" />
    <glyph glyph-name="OE" unicode="&#x152;" horiz-adv-x="1488" 
d="M643 180v1071h-82q-279 1 -279 -535t279 -536h82zM1368 0h-807q-467 0 -467 717t467 717h807v-183h-534v-493h456v-180h-456v-398h534v-180z" />
    <glyph glyph-name="oe" unicode="&#x153;" horiz-adv-x="1638" 
d="M1157 979q-202 0 -231 -324h440q-14 324 -209 324zM508 150q227 0 227 408t-226 407q-226 0 -226 -406q0 -181 54 -295t171 -114zM1183 -20q-130 0 -219 89t-133 246h-4q-80 -336 -344 -335q-182 0 -286 156q-105 156 -105 422q0 267 104 423t287 156q131 0 220 -87
t126 -245h5q39 158 127 245t217 87q373 0 372 -625h-626q10 -158 67 -258t166 -100q180 0 246 182l141 -105q-66 -129 -148 -190t-213 -61z" />
    <glyph glyph-name="Scaron" unicode="&#x160;" horiz-adv-x="1013" 
d="M295 1925l123 -131l84 -96h4q43 53 84 96l123 131l112 -123l-241 -225h-158l-242 225zM514 160q106 0 168 60q63 60 63 138q0 136 -125 212q-56 34 -125 67q-172 82 -263 157q-126 104 -126 274q0 171 109 279t283 107q299 0 413 -289l-170 -98q-66 205 -245 205
q-92 0 -146 -53t-53 -137q0 -145 224 -251q93 -43 187 -92t160 -140t66 -220q0 -178 -117 -289t-313 -110q-156 0 -275 74t-174 198l164 106q35 -92 112 -145t183 -53z" />
    <glyph glyph-name="scaron" unicode="&#x161;" horiz-adv-x="970" 
d="M291 1604l123 -131l84 -97h4q43 53 84 97l123 131l112 -123l-241 -226h-158l-242 226zM510 150q86 0 136 43t50 109q0 118 -202 188q-84 30 -168 64t-144 100q-59 67 -59 163q0 133 99 225t278 93q227 0 358 -162l-129 -119q-84 121 -242 121q-76 0 -127 -39
q-51 -38 -51 -100q-1 -62 59 -101t144 -67t169 -63t144 -109t60 -183q-1 -147 -101 -240t-270 -93q-283 -1 -428 202l139 125q39 -69 119 -113t166 -44z" />
    <glyph glyph-name="Ydieresis" unicode="&#x178;" horiz-adv-x="946" 
d="M725 1649q0 -41 -27 -66q-28 -25 -70 -25t-69 26q-27 24 -27 65t28 67t69 27q41 -1 69 -27t27 -67zM416 1649q0 -41 -27 -66t-70 -25t-69 26q-26 24 -27 65q0 41 27 67q26 26 68 27q42 -1 70 -27t28 -67zM567 0h-190v416l-354 1018h208l193 -607q33 -98 47 -182h4
q14 84 45 182l193 607h211l-357 -1018v-416z" />
    <glyph glyph-name="Zcaron" unicode="&#x17d;" horiz-adv-x="987" 
d="M305 1925l123 -131l84 -96h4q43 53 84 96l123 131l113 -123l-242 -225h-158l-241 225zM883 0h-834v4l535 1131l63 114v4q-49 -2 -86 -2h-446v183h817v-4l-533 -1115l-69 -135q0 -2 16 -1t53 1h484v-180z" />
    <glyph glyph-name="zcaron" unicode="&#x17e;" horiz-adv-x="933" 
d="M258 1604l123 -131l84 -97h4q43 53 84 97l123 131l112 -123l-241 -226h-158l-242 226zM811 0h-764v4l434 805l72 121v4h-442v182h743v-4l-418 -776q-42 -76 -82 -135l-12 -17v-4h469v-180z" />
    <glyph glyph-name="florin" unicode="&#x192;" horiz-adv-x="950" 
d="M582 758h256v-78h-258q-4 -150 -15 -256q-23 -205 -135 -322t-307 -116q-20 0 -49 2t-33 2l22 172q202 0 269 118q25 44 44 95t21 138t4 167h-264v78h264v86q1 280 107 442t319 162q18 0 45 -2t31 -2q-18 -110 -24 -174l-43 2q-180 0 -222 -196q-32 -149 -32 -318z" />
    <glyph glyph-name="circumflex" unicode="&#x2c6;" horiz-adv-x="731" 
d="M575 1534l-122 131l-84 96h-4q-43 -53 -84 -96l-123 -131l-113 123l242 225h157l242 -225z" />
    <glyph glyph-name="caron" unicode="&#x2c7;" horiz-adv-x="755" 
d="M184 1925l123 -131l84 -96h4q43 53 84 96l123 131l113 -123l-242 -225h-158l-241 225z" />
    <glyph glyph-name="breve" unicode="&#x2d8;" horiz-adv-x="710" 
d="M639 1749q0 -107 -71 -167t-214 -60t-214 60t-70 167q0 16 4 57l170 -24q-4 -10 -4 -37t32 -49t82 -21q51 0 83 22q32 23 32 49t-4 36l170 24q4 -41 4 -57z" />
    <glyph glyph-name="dotaccent" unicode="&#x2d9;" horiz-adv-x="460" 
d="M328 1667q0 -41 -28 -67t-70 -25q-42 0 -70 26q-28 27 -27 67q0 40 28 67q29 27 69 27t69 -28q29 -26 29 -67z" />
    <glyph glyph-name="ring" unicode="&#x2da;" horiz-adv-x="559" 
d="M356 1753q0 33 -22 55t-54 21q-32 0 -55 -22q-23 -21 -23 -53t24 -52q22 -20 55 -20t54 18q21 20 21 53zM477 1752q0 -85 -54 -135t-142 -50t-144 51q-55 51 -55 135t56 137q56 54 144 54t141 -54q54 -54 54 -138z" />
    <glyph glyph-name="ogonek" unicode="&#x2db;" horiz-adv-x="567" 
d="M338 -459q-118 0 -186 82q-68 81 -68 187t57 188t166 113l41 -111q-55 -16 -84 -57q-28 -41 -28 -91t30 -88q48 -58 146 -24l43 -174q-61 -25 -117 -25z" />
    <glyph glyph-name="tilde" unicode="&#x2dc;" horiz-adv-x="808" 
d="M598 1812h123q0 -242 -193 -241q-66 0 -144 52t-110 52q-66 0 -65 -90h-123q0 242 190 242q66 0 146 -53q80 -54 110 -54t48 28t18 64z" />
    <glyph glyph-name="hungarumlaut" unicode="&#x2dd;" horiz-adv-x="602" 
d="M477 1538h-151l55 313h174zM242 1538h-150l53 313h174z" />
    <glyph glyph-name="pi" unicode="&#x3c0;" horiz-adv-x="1609" 
d="M760 709h71q103 -1 103 113t-103 114h-71v-227zM760 399h-129v660h198q113 0 173 -65t60 -168t-53 -172q-54 -69 -180 -68h-69v-187zM197 716q0 -262 174 -438t436 -176t434 176t172 438q0 263 -172 439t-434 176t-436 -176t-174 -439zM1546 717q0 -313 -213 -525
t-527 -212t-527 210t-213 526q0 314 213 526t527 212t527 -212t213 -525z" />
    <glyph glyph-name="endash" unicode="&#x2013;" horiz-adv-x="802" 
d="M743 596h-684v168h684v-168z" />
    <glyph glyph-name="emdash" unicode="&#x2014;" horiz-adv-x="1214" 
d="M1153 596h-1094v168h1094v-168z" />
    <glyph glyph-name="quoteleft" unicode="&#x2018;" horiz-adv-x="382" 
d="M213 1268q27 0 53 -29t27 -71q0 -42 -29 -70t-71 -29q-117 0 -117 158q0 83 56 151t142 76l19 -63q-106 -29 -121 -129l4 -2q10 8 37 8z" />
    <glyph glyph-name="quoteright" unicode="&#x2019;" horiz-adv-x="382" 
d="M90 1353q0 43 29 71t71 28q117 0 117 -158q0 -82 -56 -150t-142 -77l-19 63q106 29 121 130l-4 2q-10 -8 -37 -8q-28 0 -54 28q-26 29 -26 71z" />
    <glyph glyph-name="quotesinglbase" unicode="&#x201a;" horiz-adv-x="440" 
d="M186 -10q-26 0 -53 28t-27 71q0 42 29 71t72 28q117 0 117 -157q0 -82 -56 -151t-143 -77l-19 64q106 29 121 129l-4 2q-11 -8 -37 -8z" />
    <glyph glyph-name="quotedblleft" unicode="&#x201c;" horiz-adv-x="661" 
d="M492 1268q26 0 53 -29t27 -71t-30 -70q-28 -28 -71 -29q-117 0 -117 158q0 83 56 151t143 76l18 -63q-106 -29 -120 -129l4 -2q11 8 37 8zM213 1268q27 0 53 -29t27 -71q0 -42 -29 -70t-71 -29q-117 0 -117 158q0 83 56 151t142 76l19 -63q-106 -29 -121 -129l4 -2
q10 8 37 8z" />
    <glyph glyph-name="quotedblright" unicode="&#x201d;" horiz-adv-x="657" 
d="M465 1452q117 0 117 -158q0 -82 -56 -150t-143 -77l-18 63q106 29 120 130l-4 2q-11 -8 -37 -8t-53 28q-27 29 -27 71q0 43 30 71q28 28 71 28zM90 1353q0 43 29 71t71 28q117 0 117 -158q0 -82 -56 -150t-142 -77l-19 63q106 29 121 130l-4 2q-10 -8 -37 -8
q-28 0 -54 28q-26 29 -26 71z" />
    <glyph glyph-name="quotedblbase" unicode="&#x201e;" horiz-adv-x="718" 
d="M473 -10q-27 0 -53 28t-27 71q0 42 29 71t72 28q117 0 116 -157q0 -82 -56 -151t-142 -77l-19 64q106 29 121 129l-4 2q-10 -8 -37 -8zM186 -10q-26 0 -53 28t-27 71q0 42 29 71t72 28q117 0 117 -157q0 -82 -56 -151t-143 -77l-19 64q106 29 121 129l-4 2q-11 -8 -37 -8
z" />
    <glyph glyph-name="dagger" unicode="&#x2020;" horiz-adv-x="901" 
d="M545 -205h-189v1063q-37 20 -71 21q-80 0 -80 -97h-137q0 262 176 262q78 0 112 -30v624h189v-669q37 -20 71 -21q80 0 80 96h138q0 -262 -177 -262q-78 0 -112 31v-1018z" />
    <glyph glyph-name="daggerdbl" unicode="&#x2021;" horiz-adv-x="901" 
d="M545 -205h-189v883q-37 20 -71 20q-80 0 -80 -96h-137q0 262 176 262q78 0 112 -30v184q-37 20 -71 20q-80 0 -80 -96h-137q0 262 176 262q78 0 112 -30v464h189v-510q37 -20 71 -20q80 0 80 96h138q0 -262 -177 -262q-78 0 -112 31v-185q37 -20 71 -20q80 0 80 96h138
q0 -262 -177 -262q-78 0 -112 31v-838z" />
    <glyph glyph-name="bullet" unicode="&#x2022;" horiz-adv-x="604" 
d="M305 449q-82 0 -140 58q-59 58 -59 141t58 139q58 57 141 57q82 0 141 -58q60 -58 60 -139q0 -82 -60 -140t-141 -58z" />
    <glyph glyph-name="ellipsis" unicode="&#x2026;" horiz-adv-x="1085" 
d="M864 -20q-47 0 -82 34q-34 34 -34 81q0 48 34 82q35 34 82 34t82 -34t35 -82q0 -47 -35 -81t-82 -34zM545 -20q-47 0 -82 34t-35 81q0 48 35 82t82 34t82 -34t35 -82q0 -47 -35 -81t-82 -34zM219 -20q-47 0 -82 34t-35 81q0 48 35 82t82 34t82 -34t35 -82q0 -47 -35 -81
t-82 -34z" />
    <glyph glyph-name="perthousand" unicode="&#x2030;" horiz-adv-x="1859" 
d="M938 121q106 0 106 211t-106 211t-106 -211t106 -211zM938 -20q-256 0 -256 352q0 160 60 257t196 97t196 -97t60 -257q0 -352 -256 -352zM353 891q105 0 105 210t-104 210q-106 0 -106 -210t105 -210zM608 1100q0 -158 -60 -255t-195 -97q-134 0 -194 97t-61 255
q0 354 255 354t255 -354zM313 0h-168l832 1434h170zM1409 332q0 -211 105 -211t106 211q0 211 -106 211t-105 -211zM1769 332q0 -352 -255 -352t-254 352q0 160 60 257t194 97t194 -97t61 -257z" />
    <glyph glyph-name="guilsinglleft" unicode="&#x2039;" horiz-adv-x="589" 
d="M207 725v-4q16 -6 112 -86l195 -162l-119 -117l-319 299v138l319 297l119 -115l-195 -162q-112 -92 -112 -88z" />
    <glyph glyph-name="guilsinglright" unicode="&#x203a;" horiz-adv-x="598" 
d="M373 725q0 -2 -113 88l-194 162l118 115l320 -297v-138l-320 -299l-118 117l194 162q96 80 113 86v4z" />
    <glyph glyph-name="fraction" unicode="&#x2044;" horiz-adv-x="950" 
d="M162 0h-146l744 1434h147z" />
    <glyph glyph-name="Euro" unicode="&#x20ac;" horiz-adv-x="1071" 
d="M590 -20q-422 0 -459 620h-100v70h98v94h-98v70h100q37 621 459 620q303 0 407 -330l-168 -92q-59 240 -239 240q-240 0 -268 -438h362v-70h-367v-94h367v-70h-362q29 -440 268 -440q172 0 235 221l164 -98q-106 -303 -399 -303z" />
    <glyph glyph-name="UNI2116" unicode="&#x2116;" horiz-adv-x="1986" 
d="M862 1434h174v-1434h-176l-522 1055h-4q6 -74 6 -142v-913h-172v1434h176l465 -922l53 -125h4l-4 139v908zM1890 59h-671v152h671v-152zM1390 860q0 -276 167 -276t167 275t-168 276q-166 1 -166 -275zM1894 860q0 -206 -86 -328t-251 -122t-251 122t-87 328
q0 207 87 329q88 122 252 122t250 -122t86 -329z" />
    <glyph glyph-name="trademark" unicode="&#x2122;" horiz-adv-x="1202" 
d="M1128 788h-129v291l5 140h-5q-12 -27 -65 -115l-90 -152h-6l-156 265h-4q4 -68 4 -138v-291h-131v646h137l86 -144l64 -119h4q37 68 65 119l84 144h137v-646zM311 788h-131v521h-139v125h410v-125h-140v-521z" />
    <glyph glyph-name="minus" unicode="&#x2212;" horiz-adv-x="604" 
d="M545 596h-486v168h486v-168z" />
    <glyph glyph-name="notequal" unicode="&#x2260;" horiz-adv-x="669" 
d="M604 479h-319l-68 -160h-86l68 160h-140v154h195l70 166h-265v153h322l61 148h86l-59 -148h135v-153h-192l-70 -166h262v-154z" />
    <glyph glyph-name="apple" unicode="&#xf8ff;" horiz-adv-x="2891" 
d="M2253 664v163h-31v-163h31zM2185 664v163h-31v-163h31zM1726 676v164h-30l-33 -66h-2l-35 66h-29v-164h31v104l31 -51h6l29 51h2v-104h30zM2322 664v163h-30v-163h30zM2134 664l-31 81l31 82h-31l-18 -61h-4l-19 61h-30l30 -82l-30 -81h30l19 59h4l18 -59h31zM1890 676
v164h-30l-33 -66h-2l-35 66h-29v-164h31v104l31 -51h6l29 51h2v-104h30zM90 656q0 256 44 477t122 260q45 25 202 45q158 20 308 20t266 -42t155 -106q38 -64 50 -152q12 -89 12 -245v-129q0 -211 72 -338t258 -143q16 -4 16 -12q0 -29 -85 -47t-132 -19l-102 8
q-49 0 -66 -66t-48 -97t-85 -43q-190 -39 -336 -39q-145 0 -303 24t-215 56q-92 53 -119 227q-14 105 -14 361zM1744 551q-89 0 -145 53q-55 52 -55 140t50 149t144 61t149 -47t55 -143t-54 -154t-144 -59zM2178 537q-99 0 -150 63q-52 62 -52 152t60 146t146 56
q85 0 137 -57q53 -57 53 -141t-48 -152t-146 -67zM1952 127q-28 0 -27 37q0 8 9 39t10 33q0 31 -31 122l-47 -84q-8 -16 -8 -22l14 -68q0 -53 -33 -53q-25 0 -24 41q0 18 8 49v4q2 6 2 11l-2 14q-22 92 -36 94q3 -2 -5 -6t-20 -22t-13 -40l14 -79q-1 -45 -29 -45t-28 47
l6 51q0 10 -18 52t-24 42t-12 -55q-7 -55 -7 -96q1 -41 23 -71q49 -65 310 -65q262 0 332 47q33 23 37 58q37 369 146 450q4 4 17 4t13 -8t-6 -14q-90 -100 -113 -447q-2 -31 -14 -55t-47 -52q-74 -61 -316 -60q-241 0 -322 45t-81 153q0 51 25 184v3q2 2 2 9t-20 42
q-19 35 -19 55q0 29 29 29t34 -43l-4 -54l23 -36q39 -66 42 -66t7 6l27 55q0 2 1 12t-12 42q-12 32 -12 54t12 38t27 16q27 0 27 -41l-15 -84l11 -26q25 -84 33 -84t33 40t26 48l-2 4v6q-23 63 -23 85t12 36t29 14q33 0 33 -47l-19 -72l29 -131q2 0 26 34t23 63l-8 92
q0 47 33 47q12 0 25 -13t-3 -55q-16 -41 -16 -55l2 -2v-4l10 -47q0 -10 6 -10l66 57q2 0 2 -2t-32 -35t-32 -49l9 -76q0 -51 -29 -51t-29 33l15 73v9l-11 49l-4 6l-4 -4l-39 -70q-4 -8 -4 -14l8 -78q0 -43 -28 -43zM2705 812q0 205 -98 375q-53 91 -159 145t-255 54
q-243 0 -365 -105t-122 -216q0 -47 -27 -55q-176 -63 -176 -248q0 -76 31 -144t74 -90q14 -8 14 -13t-11 -5t-32 14q-119 84 -119 234q0 92 45 171t121 113q25 10 25 31q0 141 145 263q146 122 412 122t430 -166t164 -487q0 -195 -134 -325q-81 -76 -137 -78q-18 0 -18 4
q0 6 18 24q99 70 149 209q25 75 25 173zM1122 688v80h-932v-80h932zM611 466l3 -26l35 -147h-74l35 164q0 4 1 9zM766 147l-107 447h-94l-106 -447h86l14 70h103l16 -70h88zM655 862v367h78v80h-237v-80h77v-367h82zM922 412h-29v102h29q70 0 69 -47q1 -55 -69 -55zM940 225
h-47v113h47q31 0 50 -16t20 -37q0 -60 -70 -60zM809 147h125q154 0 153 134q0 72 -65 98q53 29 53 92q0 121 -143 121h-123v-445zM1053 862v80h-154v92h129v80h-129v115h154v80h-238v-447h238zM387 147v367h80v78h-240v-78h78v-367h82zM420 1012v297h-82v-303q0 -72 -53 -72
q-12 0 -29 8l-33 -74q29 -12 76 -12t84 39t37 117z" />
    <glyph glyph-name="fi" unicode="&#xfb01;" horiz-adv-x="1142" 
d="M989 0h-188v1116h188v-1116zM897 1247q-47 0 -82 34t-35 82t35 82t82 34t82 -34t35 -82t-35 -82t-82 -34zM397 0h-188v954h-148v162h148v51q0 373 303 373q84 0 158 -33l-47 -166q-47 33 -101 33q-125 0 -125 -174v-84h205v-162h-205v-954z" />
    <glyph glyph-name="fl" unicode="&#xfb02;" horiz-adv-x="1161" 
d="M1018 0h-189v1495h189v-1495zM397 0h-188v954h-148v162h148v51q0 373 303 373q84 0 158 -33l-47 -166q-47 33 -101 33q-125 0 -125 -174v-84h205v-162h-205v-954z" />
    <glyph glyph-name="a.alt" horiz-adv-x="1046" 
d="M700 467v188q0 311 -198 312q-219 0 -219 -407t219 -406q198 0 198 313zM92 559q0 266 102 422t277 156q145 0 248 -142q8 68 29 121h170q-27 -68 -27 -174v-770q0 -111 27 -172h-170q-27 66 -31 135h-4q-83 -153 -261 -153t-269 156t-91 421z" />
    <glyph glyph-name="agrave.alt" 
d="M721 1200l-457 193l68 147l446 -217zM700 467v188q0 311 -198 312q-219 0 -219 -407t219 -406q198 0 198 313zM92 559q0 266 102 422t277 156q145 0 248 -142q8 68 29 121h170q-27 -68 -27 -174v-770q0 -111 27 -172h-170q-27 66 -31 135h-4q-83 -153 -261 -153t-269 156
t-91 421z" />
    <glyph glyph-name="aacute.alt" 
d="M756 1393l-457 -193l-57 123l444 217zM700 467v188q0 311 -198 312q-219 0 -219 -407t219 -406q198 0 198 313zM92 559q0 266 102 422t277 156q145 0 248 -142q8 68 29 121h170q-27 -68 -27 -174v-770q0 -111 27 -172h-170q-27 66 -31 135h-4q-83 -153 -261 -153
t-269 156t-91 421z" />
    <glyph glyph-name="acircumflex.alt" 
d="M733 1235l-123 131l-84 96h-4q-43 -53 -84 -96l-123 -131l-112 123l241 225h158l242 -225zM700 467v188q0 311 -198 312q-219 0 -219 -407t219 -406q198 0 198 313zM92 559q0 266 102 422t277 156q145 0 248 -142q8 68 29 121h170q-27 -68 -27 -174v-770q0 -111 27 -172
h-170q-27 66 -31 135h-4q-83 -153 -261 -153t-269 156t-91 421z" />
    <glyph glyph-name="atilde.alt" 
d="M702 1509h123q0 -242 -192 -241q-66 0 -145 52t-109 52q-66 0 -66 -90h-123q0 242 191 242q65 0 145 -54t111 -53q31 -1 48 27t17 65zM700 467v188q0 311 -198 312q-219 0 -219 -407t219 -406q198 0 198 313zM92 559q0 266 102 422t277 156q145 0 248 -142q8 68 29 121
h170q-27 -68 -27 -174v-770q0 -111 27 -172h-170q-27 66 -31 135h-4q-83 -153 -261 -153t-269 156t-91 421z" />
    <glyph glyph-name="adieresis.alt" 
d="M760 1356q0 -41 -27 -66q-27 -24 -69 -24t-70 24q-27 24 -27 66t28 68t69 26q40 0 68 -26t28 -68zM451 1356q0 -41 -27 -66q-27 -24 -70 -24q-44 0 -70 24t-26 66t27 68t69 26t69 -26q28 -26 28 -68zM700 467v188q0 311 -198 312q-219 0 -219 -407t219 -406
q198 0 198 313zM92 559q0 266 102 422t277 156q145 0 248 -142q8 68 29 121h170q-27 -68 -27 -174v-770q0 -111 27 -172h-170q-27 66 -31 135h-4q-83 -153 -261 -153t-269 156t-91 421z" />
    <glyph glyph-name="aring.alt" 
d="M700 467v188q0 311 -198 312q-219 0 -219 -407t219 -406q198 0 198 313zM92 559q0 266 102 422t277 156q145 0 248 -142q8 68 29 121h170q-27 -68 -27 -174v-770q0 -111 27 -172h-170q-27 66 -31 135h-4q-83 -153 -261 -153t-269 156t-91 421zM575 1442q1 32 -21 54
t-54 22t-56 -22q-22 -22 -22 -54t22 -51q22 -21 56 -21q33 0 54 20t21 52zM696 1441q0 -85 -54 -135t-142 -50t-144 50q-56 52 -55 136q0 84 56 137q55 53 143 53t142 -53t54 -138z" />
    <glyph glyph-name="one.osf" horiz-adv-x="532" 
d="M375 0h-189v936h-131v180h320v-1116z" />
    <glyph glyph-name="two.osf" horiz-adv-x="987" 
d="M881 0h-858v4l518 535q125 129 125 231q0 74 -50 131t-143 57q-178 0 -233 -223l-172 70q47 154 150 243t270 89q168 1 266 -105t98 -272t-154 -320t-282 -262v-4q143 6 243 6h222v-180z" />
    <glyph glyph-name="three.osf" horiz-adv-x="999" 
d="M479 -197q-167 0 -277 80t-155 215l166 105q57 -219 274 -219q119 0 186 68t67 167q0 100 -75 166t-194 66q-45 0 -70 -5l-63 170l223 228q55 55 92 86h-547v186h791v-178l-352 -336l2 -4q176 -16 277 -112q102 -96 102 -270q0 -173 -119 -293t-328 -120z" />
    <glyph glyph-name="four.osf" horiz-adv-x="983" 
d="M567 291v557h-6q-33 -80 -67 -156l-111 -235l-84 -162v-4h268zM745 -178h-188v301h-532v2l532 1014h188v-836h170v-180h-170v-301z" />
    <glyph glyph-name="five.osf" horiz-adv-x="1003" 
d="M811 1116v-186h-457l-39 -309l4 -3q86 41 189 41q193 -1 299 -121t106 -301t-112 -308q-113 -126 -309 -126q-289 1 -402 265l164 110q70 -195 238 -194q108 0 166 70t58 176t-60 178q-62 72 -173 72t-198 -89l-158 84l68 641h616z" />
    <glyph glyph-name="six.osf" horiz-adv-x="1052" 
d="M550 158q101 0 163 73q61 74 61 185q0 110 -59 178t-166 68t-167 -71t-60 -181t63 -182q64 -70 165 -70zM582 829q186 -1 286 -115t100 -295t-110 -310q-111 -129 -313 -129q-229 0 -333 186q-103 186 -103 490t130 476q130 173 343 173q172 -1 336 -148l-111 -151
q-90 115 -232 114q-103 0 -169 -74t-91 -168q-25 -95 -28 -216h4q39 76 115 122t176 45z" />
    <glyph glyph-name="seven.osf" horiz-adv-x="837" 
d="M47 936v180h795l-441 -1294h-198l381 1114h-537z" />
    <glyph glyph-name="eight.osf" horiz-adv-x="1056" 
d="M967 379q0 -172 -114 -286q-114 -113 -322 -113q-207 0 -321 114t-114 285q0 123 67 216t191 136v4q-82 37 -126 106t-44 146q0 137 92 228t255 91t255 -90q92 -92 93 -229q0 -79 -44 -147t-126 -105v-4q123 -43 191 -136t67 -216zM531 795q83 0 126 51t43 127t-45 126
t-124 50t-125 -50t-46 -126t44 -127t127 -51zM778 392q0 103 -65 176q-66 73 -182 73q-115 0 -181 -73t-66 -176t66 -171q64 -67 182 -67t183 67q63 68 63 171z" />
    <glyph glyph-name="nine.osf" horiz-adv-x="1052" 
d="M492 283q-188 0 -291 115q-103 116 -103 296t111 310t313 131q117 -1 204 -53t136 -148q98 -192 97 -486t-126 -466t-333 -172t-357 143l113 151q106 -111 240 -110q264 0 284 455l-4 2q-36 -78 -110 -123t-174 -45zM293 697q1 -112 61 -179t168 -67q108 1 166 71
q57 70 57 180t-62 181q-63 71 -165 71t-164 -72q-61 -73 -61 -185z" />
    <glyph glyph-name="dollar.osf" horiz-adv-x="1007" 
d="M510 150q86 0 136 43t50 109q0 118 -202 188q-84 30 -168 64t-144 100q-59 67 -59 163q0 133 99 225t278 93h2l22 200h127l-24 -215q139 -35 231 -147l-129 -119q-84 121 -242 121q-76 0 -127 -39q-51 -38 -51 -100q-1 -62 59 -101t144 -67t169 -63t144 -109t60 -183
q-1 -147 -101 -240t-270 -93h-12l-19 -179h-127l21 193q-186 41 -291 188l139 125q39 -69 119 -113t166 -44z" />
    <glyph glyph-name="sterling.osf" 
d="M362 23q-94 0 -151 -52l-98 125q100 102 106 246q0 45 -2 72h-135v133h125q-12 160 -12 170q0 420 358 420q266 0 346 -297l-168 -84q-27 205 -182 205q-86 -1 -129 -59t-43 -161q0 -31 10 -194h307v-133h-305q0 -166 -65 -252q2 -2 2 -4q45 14 102 14l215 -16
q125 0 203 59l67 -170q-74 -66 -202 -65q-57 0 -176 22t-173 21z" />
    <glyph glyph-name="Euro.osf" horiz-adv-x="935" 
d="M506 -20q-176 0 -282 116q-105 117 -126 330h-82v70h76v102h-76v70h80q20 219 128 344t282 125q258 0 360 -256l-153 -111q-47 188 -201 188q-199 0 -225 -290h231v-70h-235q0 -84 2 -102h233v-70h-229q25 -272 223 -272q148 -1 205 192l151 -108q-98 -258 -362 -258z
" />
    <glyph glyph-name="yen.osf" horiz-adv-x="915" 
d="M557 0h-186v281h-250v69h250l-49 111h-201v69h168l-262 586h211l176 -438l47 -148h4q12 51 49 148l174 438h213l-266 -586h162v-69h-193l-47 -111h240v-69h-240v-281z" />
    <glyph glyph-name="zero.osf" horiz-adv-x="1019" 
d="M510 -20q-209 0 -324 154t-114 425q0 270 114 424q115 154 324 154t324 -154q114 -154 114 -424t-114 -425q-115 -154 -324 -154zM510 967q-120 0 -184 -115t-64 -292q0 -176 64 -292t185 -116q120 0 182 112q63 112 63 294q0 181 -64 295t-182 114z" />
    </font>
</defs>
</svg>
